<svg width="175" height="38" viewBox="0 0 175 38" fill="none" xmlns="http://www.w3.org/2000/svg">
<ellipse cx="41.0175" cy="18.8949" rx="2.5" ry="2.60417" fill="#20C997"/>
<ellipse cx="32.6466" cy="18.895" rx="1.87508" ry="1.95321" fill="#20C997"/>
<ellipse cx="25.3704" cy="18.8949" rx="1.40545" ry="1.46401" fill="#20C997"/>
<ellipse cx="18.9145" cy="18.895" rx="1.05466" ry="1.09861" fill="#20C997"/>
<ellipse cx="35.7955" cy="24.299" rx="2.5" ry="2.60417" fill="#20C997"/>
<ellipse cx="27.4246" cy="24.299" rx="1.87508" ry="1.95321" fill="#20C997"/>
<ellipse cx="20.1484" cy="24.299" rx="1.40545" ry="1.46401" fill="#20C997"/>
<ellipse cx="13.6925" cy="24.299" rx="1.05466" ry="1.09861" fill="#20C997"/>
<ellipse cx="35.7955" cy="13.4908" rx="2.5" ry="2.60417" fill="#20C997"/>
<ellipse cx="27.4246" cy="13.4908" rx="1.87508" ry="1.95321" fill="#20C997"/>
<ellipse cx="20.1484" cy="13.4907" rx="1.40545" ry="1.46401" fill="#20C997"/>
<ellipse cx="13.6925" cy="13.4907" rx="1.05466" ry="1.09861" fill="#20C997"/>
<ellipse cx="29.9138" cy="29.689" rx="2.5" ry="2.60417" fill="#20C997"/>
<ellipse cx="21.543" cy="29.6891" rx="1.87508" ry="1.95321" fill="#20C997"/>
<ellipse cx="14.2667" cy="29.689" rx="1.40545" ry="1.46401" fill="#20C997"/>
<ellipse cx="7.81089" cy="29.6891" rx="1.05466" ry="1.09861" fill="#20C997"/>
<ellipse cx="29.9138" cy="8.10087" rx="2.5" ry="2.60417" fill="#20C997"/>
<ellipse cx="21.543" cy="8.10092" rx="1.87508" ry="1.95321" fill="#20C997"/>
<ellipse cx="14.2667" cy="8.10085" rx="1.40545" ry="1.46401" fill="#20C997"/>
<ellipse cx="7.81089" cy="8.10093" rx="1.05466" ry="1.09861" fill="#20C997"/>
<ellipse cx="24.0214" cy="34.4867" rx="2.5" ry="2.60417" fill="#20C997"/>
<ellipse cx="15.6505" cy="34.4867" rx="1.87508" ry="1.95321" fill="#20C997"/>
<ellipse cx="8.37426" cy="34.4867" rx="1.40545" ry="1.46401" fill="#20C997"/>
<ellipse cx="1.91843" cy="34.4867" rx="1.05466" ry="1.09861" fill="#20C997"/>
<ellipse cx="24.0214" cy="3.0424" rx="2.5" ry="2.60417" fill="#20C997"/>
<ellipse cx="15.6505" cy="3.04245" rx="1.87508" ry="1.95321" fill="#20C997"/>
<ellipse cx="8.37426" cy="3.04238" rx="1.40545" ry="1.46401" fill="#20C997"/>
<ellipse cx="1.91843" cy="3.04245" rx="1.05466" ry="1.09861" fill="#20C997"/>
<path d="M52.4967 19.2645V3.9918H57.6572C58.8554 3.9918 59.8348 4.20806 60.5954 4.64059C61.3611 5.06815 61.9278 5.64734 62.2957 6.37816C62.6636 7.10899 62.8476 7.92433 62.8476 8.82419C62.8476 9.72404 62.6636 10.5419 62.2957 11.2777C61.9328 12.0135 61.371 12.6001 60.6103 13.0376C59.8497 13.4701 58.8753 13.6864 57.6871 13.6864H53.9882V12.0458H57.6274C58.4477 12.0458 59.1064 11.9041 59.6036 11.6207C60.1008 11.3373 60.4612 10.9545 60.6849 10.4723C60.9136 9.98505 61.028 9.43569 61.028 8.82419C61.028 8.21268 60.9136 7.6658 60.6849 7.18356C60.4612 6.70132 60.0983 6.32348 59.5961 6.05004C59.094 5.77163 58.4278 5.63242 57.5976 5.63242H54.3461V19.2645H52.4967ZM78.7132 11.6282C78.7132 13.239 78.4223 14.631 77.8406 15.8043C77.259 16.9776 76.461 17.8824 75.4468 18.5188C74.4326 19.1552 73.2742 19.4733 71.9717 19.4733C70.6691 19.4733 69.5107 19.1552 68.4965 18.5188C67.4823 17.8824 66.6844 16.9776 66.1027 15.8043C65.521 14.631 65.2302 13.239 65.2302 11.6282C65.2302 10.0174 65.521 8.62532 66.1027 7.45203C66.6844 6.27873 67.4823 5.3739 68.4965 4.73754C69.5107 4.10117 70.6691 3.78299 71.9717 3.78299C73.2742 3.78299 74.4326 4.10117 75.4468 4.73754C76.461 5.3739 77.259 6.27873 77.8406 7.45203C78.4223 8.62532 78.7132 10.0174 78.7132 11.6282ZM76.9234 11.6282C76.9234 10.3057 76.7021 9.1896 76.2597 8.2798C75.8222 7.37 75.2281 6.68143 74.4774 6.2141C73.7316 5.74677 72.8964 5.51311 71.9717 5.51311C71.047 5.51311 70.2092 5.74677 69.4585 6.2141C68.7128 6.68143 68.1187 7.37 67.6762 8.2798C67.2387 9.1896 67.02 10.3057 67.02 11.6282C67.02 12.9506 67.2387 14.0667 67.6762 14.9765C68.1187 15.8863 68.7128 16.5749 69.4585 17.0422C70.2092 17.5096 71.047 17.7432 71.9717 17.7432C72.8964 17.7432 73.7316 17.5096 74.4774 17.0422C75.2281 16.5749 75.8222 15.8863 76.2597 14.9765C76.7021 14.0667 76.9234 12.9506 76.9234 11.6282ZM81.8229 19.2645V3.9918H86.9834C88.1766 3.9918 89.156 4.19563 89.9216 4.6033C90.6872 5.006 91.254 5.56034 91.6219 6.2663C91.9898 6.97227 92.1737 7.77518 92.1737 8.67504C92.1737 9.5749 91.9898 10.3728 91.6219 11.0689C91.254 11.7649 90.6897 12.3118 89.9291 12.7095C89.1684 13.1022 88.1965 13.2986 87.0132 13.2986H82.8371V11.6282H86.9536C87.7689 11.6282 88.4252 11.5088 88.9223 11.2702C89.4244 11.0316 89.7874 10.6935 90.0111 10.256C90.2398 9.81353 90.3541 9.28654 90.3541 8.67504C90.3541 8.06353 90.2398 7.52909 90.0111 7.0717C89.7824 6.61431 89.417 6.26133 88.9149 6.01275C88.4127 5.7592 87.749 5.63242 86.9237 5.63242H83.6723V19.2645H81.8229ZM89.0118 12.4037L92.7703 19.2645H90.6226L86.9237 12.4037H89.0118ZM94.4203 5.63242V3.9918H105.875V5.63242H101.072V19.2645H99.2228V5.63242H94.4203ZM110.579 3.9918V19.2645H108.729V3.9918H110.579ZM114.287 19.2645V3.9918H123.444V5.63242H116.136V10.7929H122.758V12.4336H116.136V19.2645H114.287ZM139.498 11.6282C139.498 13.239 139.207 14.631 138.626 15.8043C138.044 16.9776 137.246 17.8824 136.232 18.5188C135.218 19.1552 134.059 19.4733 132.757 19.4733C131.454 19.4733 130.296 19.1552 129.282 18.5188C128.267 17.8824 127.47 16.9776 126.888 15.8043C126.306 14.631 126.015 13.239 126.015 11.6282C126.015 10.0174 126.306 8.62532 126.888 7.45203C127.47 6.27873 128.267 5.3739 129.282 4.73754C130.296 4.10117 131.454 3.78299 132.757 3.78299C134.059 3.78299 135.218 4.10117 136.232 4.73754C137.246 5.3739 138.044 6.27873 138.626 7.45203C139.207 8.62532 139.498 10.0174 139.498 11.6282ZM137.709 11.6282C137.709 10.3057 137.487 9.1896 137.045 8.2798C136.607 7.37 136.013 6.68143 135.263 6.2141C134.517 5.74677 133.682 5.51311 132.757 5.51311C131.832 5.51311 130.994 5.74677 130.244 6.2141C129.498 6.68143 128.904 7.37 128.461 8.2798C128.024 9.1896 127.805 10.3057 127.805 11.6282C127.805 12.9506 128.024 14.0667 128.461 14.9765C128.904 15.8863 129.498 16.5749 130.244 17.0422C130.994 17.5096 131.832 17.7432 132.757 17.7432C133.682 17.7432 134.517 17.5096 135.263 17.0422C136.013 16.5749 136.607 15.8863 137.045 14.9765C137.487 14.0667 137.709 12.9506 137.709 11.6282ZM142.608 19.2645V3.9918H144.457V17.6239H151.557V19.2645H142.608ZM156.27 3.9918V19.2645H154.421V3.9918H156.27ZM172.865 11.6282C172.865 13.239 172.574 14.631 171.992 15.8043C171.41 16.9776 170.612 17.8824 169.598 18.5188C168.584 19.1552 167.426 19.4733 166.123 19.4733C164.82 19.4733 163.662 19.1552 162.648 18.5188C161.634 17.8824 160.836 16.9776 160.254 15.8043C159.672 14.631 159.382 13.239 159.382 11.6282C159.382 10.0174 159.672 8.62532 160.254 7.45203C160.836 6.27873 161.634 5.3739 162.648 4.73754C163.662 4.10117 164.82 3.78299 166.123 3.78299C167.426 3.78299 168.584 4.10117 169.598 4.73754C170.612 5.3739 171.41 6.27873 171.992 7.45203C172.574 8.62532 172.865 10.0174 172.865 11.6282ZM171.075 11.6282C171.075 10.3057 170.854 9.1896 170.411 8.2798C169.974 7.37 169.379 6.68143 168.629 6.2141C167.883 5.74677 167.048 5.51311 166.123 5.51311C165.198 5.51311 164.361 5.74677 163.61 6.2141C162.864 6.68143 162.27 7.37 161.828 8.2798C161.39 9.1896 161.171 10.3057 161.171 11.6282C161.171 12.9506 161.39 14.0667 161.828 14.9765C162.27 15.8863 162.864 16.5749 163.61 17.0422C164.361 17.5096 165.198 17.7432 166.123 17.7432C167.048 17.7432 167.883 17.5096 168.629 17.0422C169.379 16.5749 169.974 15.8863 170.411 14.9765C170.854 14.0667 171.075 12.9506 171.075 11.6282ZM51.3234 24.1765V23.0827H58.9598V24.1765H55.7581V33.2645H54.5251V24.1765H51.3234ZM60.8627 33.2645V23.0827H64.303C65.0984 23.0827 65.7514 23.2186 66.2618 23.4904C66.7722 23.7588 67.1501 24.1284 67.3953 24.599C67.6406 25.0697 67.7632 25.605 67.7632 26.2049C67.7632 26.8048 67.6406 27.3367 67.3953 27.8007C67.1501 28.2648 66.7739 28.6293 66.2668 28.8945C65.7597 29.1563 65.1117 29.2873 64.3229 29.2873H61.5388V28.1736H64.2831C64.8267 28.1736 65.2642 28.0941 65.5956 27.935C65.9304 27.7759 66.1723 27.5505 66.3215 27.2588C66.4739 26.9639 66.5502 26.6125 66.5502 26.2049C66.5502 25.7972 66.4739 25.4409 66.3215 25.136C66.169 24.8311 65.9254 24.5957 65.5906 24.43C65.2559 24.261 64.8134 24.1765 64.2632 24.1765H62.0956V33.2645H60.8627ZM65.6553 28.6907L68.1609 33.2645H66.7291L64.2632 28.6907H65.6553ZM70.2353 33.2645H68.9427L72.6814 23.0827H73.9541L77.6927 33.2645H76.4001L73.3575 24.6935H73.278L70.2353 33.2645ZM70.7126 29.2873H75.9228V30.381H70.7126V29.2873ZM86.9933 26.2645H85.7604C85.6875 25.9099 85.5599 25.5983 85.3776 25.3299C85.1986 25.0614 84.9798 24.836 84.7213 24.6537C84.4661 24.4681 84.1827 24.3289 83.8712 24.2361C83.5596 24.1433 83.2348 24.0969 82.8967 24.0969C82.2803 24.0969 81.7218 24.2527 81.2213 24.5642C80.7242 24.8758 80.3281 25.3348 80.0331 25.9414C79.7414 26.5479 79.5956 27.292 79.5956 28.1736C79.5956 29.0552 79.7414 29.7993 80.0331 30.4059C80.3281 31.0124 80.7242 31.4714 81.2213 31.783C81.7218 32.0945 82.2803 32.2503 82.8967 32.2503C83.2348 32.2503 83.5596 32.2039 83.8712 32.1111C84.1827 32.0183 84.4661 31.8808 84.7213 31.6985C84.9798 31.5129 85.1986 31.2858 85.3776 31.0174C85.5599 30.7456 85.6875 30.434 85.7604 30.0827H86.9933C86.9005 30.6031 86.7315 31.0687 86.4862 31.4797C86.241 31.8907 85.936 32.2404 85.5715 32.5287C85.2069 32.8138 84.7976 33.0309 84.3435 33.18C83.8927 33.3292 83.4105 33.4037 82.8967 33.4037C82.0284 33.4037 81.2561 33.1916 80.58 32.7674C79.9038 32.3431 79.3719 31.7399 78.9841 30.9577C78.5963 30.1755 78.4024 29.2475 78.4024 28.1736C78.4024 27.0998 78.5963 26.1717 78.9841 25.3895C79.3719 24.6073 79.9038 24.0041 80.58 23.5799C81.2561 23.1556 82.0284 22.9435 82.8967 22.9435C83.4105 22.9435 83.8927 23.0181 84.3435 23.1672C84.7976 23.3164 85.2069 23.5351 85.5715 23.8235C85.936 24.1085 86.241 24.4565 86.4862 24.8675C86.7315 25.2752 86.9005 25.7409 86.9933 26.2645ZM88.9857 33.2645V23.0827H90.2187V28.1338H90.338L94.9118 23.0827H96.5226L92.2471 27.6765L96.5226 33.2645H95.0312L91.4914 28.5316L90.2187 29.9634V33.2645H88.9857Z" fill="#20C997"/>
</svg>
