<svg width="174" height="37" viewBox="0 0 174 37" fill="none" xmlns="http://www.w3.org/2000/svg">
<ellipse cx="40.3275" cy="18.4991" rx="2.5" ry="2.60417" fill="#29B8BB"/>
<ellipse cx="31.9566" cy="18.4991" rx="1.87508" ry="1.95321" fill="#29B8BB"/>
<ellipse cx="24.6803" cy="18.499" rx="1.40545" ry="1.46401" fill="#29B8BB"/>
<ellipse cx="18.2245" cy="18.4991" rx="1.05466" ry="1.09861" fill="#29B8BB"/>
<ellipse cx="35.1055" cy="23.9031" rx="2.5" ry="2.60417" fill="#29B8BB"/>
<ellipse cx="26.7346" cy="23.9032" rx="1.87508" ry="1.95321" fill="#29B8BB"/>
<ellipse cx="19.4584" cy="23.9031" rx="1.40545" ry="1.46401" fill="#29B8BB"/>
<ellipse cx="13.0025" cy="23.9032" rx="1.05466" ry="1.09861" fill="#29B8BB"/>
<ellipse cx="35.1055" cy="13.0949" rx="2.5" ry="2.60417" fill="#29B8BB"/>
<ellipse cx="26.7346" cy="13.0949" rx="1.87508" ry="1.95321" fill="#29B8BB"/>
<ellipse cx="19.4584" cy="13.0949" rx="1.40545" ry="1.46401" fill="#29B8BB"/>
<ellipse cx="13.0025" cy="13.0948" rx="1.05466" ry="1.09861" fill="#29B8BB"/>
<ellipse cx="29.2238" cy="29.2931" rx="2.5" ry="2.60417" fill="#29B8BB"/>
<ellipse cx="20.853" cy="29.2932" rx="1.87508" ry="1.95321" fill="#29B8BB"/>
<ellipse cx="13.5767" cy="29.2931" rx="1.40545" ry="1.46401" fill="#29B8BB"/>
<ellipse cx="7.12089" cy="29.2932" rx="1.05466" ry="1.09861" fill="#29B8BB"/>
<ellipse cx="29.2238" cy="7.705" rx="2.5" ry="2.60417" fill="#29B8BB"/>
<ellipse cx="20.853" cy="7.70504" rx="1.87508" ry="1.95321" fill="#29B8BB"/>
<ellipse cx="13.5767" cy="7.70498" rx="1.40545" ry="1.46401" fill="#29B8BB"/>
<ellipse cx="7.12089" cy="7.70505" rx="1.05466" ry="1.09861" fill="#29B8BB"/>
<ellipse cx="23.3314" cy="34.0909" rx="2.5" ry="2.60417" fill="#29B8BB"/>
<ellipse cx="14.9605" cy="34.0908" rx="1.87508" ry="1.95321" fill="#29B8BB"/>
<ellipse cx="7.68426" cy="34.0908" rx="1.40545" ry="1.46401" fill="#29B8BB"/>
<ellipse cx="1.22843" cy="34.0908" rx="1.05466" ry="1.09861" fill="#29B8BB"/>
<ellipse cx="23.3314" cy="2.64652" rx="2.5" ry="2.60417" fill="#29B8BB"/>
<ellipse cx="14.9605" cy="2.64657" rx="1.87508" ry="1.95321" fill="#29B8BB"/>
<ellipse cx="7.68426" cy="2.6465" rx="1.40545" ry="1.46401" fill="#29B8BB"/>
<ellipse cx="1.22843" cy="2.64658" rx="1.05466" ry="1.09861" fill="#29B8BB"/>
<path d="M51.8067 18.8687V3.59592H56.9672C58.1654 3.59592 59.1448 3.81219 59.9054 4.24472C60.6711 4.67227 61.2378 5.25146 61.6057 5.98229C61.9736 6.71311 62.1576 7.52845 62.1576 8.42831C62.1576 9.32817 61.9736 10.146 61.6057 10.8818C61.2428 11.6176 60.681 12.2042 59.9203 12.6417C59.1597 13.0743 58.1853 13.2905 56.997 13.2905H53.2982V11.6499H56.9374C57.7577 11.6499 58.4164 11.5082 58.9136 11.2248C59.4108 10.9415 59.7712 10.5586 59.9949 10.0764C60.2236 9.58918 60.338 9.03982 60.338 8.42831C60.338 7.81681 60.2236 7.26993 59.9949 6.78769C59.7712 6.30544 59.4083 5.9276 58.9061 5.65416C58.404 5.37575 57.7378 5.23655 56.9076 5.23655H53.6561V18.8687H51.8067ZM78.0231 11.2323C78.0231 12.8431 77.7323 14.2351 77.1506 15.4084C76.569 16.5817 75.771 17.4866 74.7568 18.1229C73.7426 18.7593 72.5842 19.0775 71.2817 19.0775C69.9791 19.0775 68.8207 18.7593 67.8065 18.1229C66.7923 17.4866 65.9944 16.5817 65.4127 15.4084C64.831 14.2351 64.5402 12.8431 64.5402 11.2323C64.5402 9.62149 64.831 8.22945 65.4127 7.05615C65.9944 5.88286 66.7923 4.97803 67.8065 4.34166C68.8207 3.7053 69.9791 3.38712 71.2817 3.38712C72.5842 3.38712 73.7426 3.7053 74.7568 4.34166C75.771 4.97803 76.569 5.88286 77.1506 7.05615C77.7323 8.22945 78.0231 9.62149 78.0231 11.2323ZM76.2334 11.2323C76.2334 9.90985 76.0121 8.79372 75.5697 7.88392C75.1322 6.97412 74.5381 6.28556 73.7874 5.81823C73.0416 5.3509 72.2064 5.11723 71.2817 5.11723C70.357 5.11723 69.5192 5.3509 68.7685 5.81823C68.0228 6.28556 67.4287 6.97412 66.9862 7.88392C66.5487 8.79372 66.33 9.90985 66.33 11.2323C66.33 12.5547 66.5487 13.6709 66.9862 14.5807C67.4287 15.4905 68.0228 16.179 68.7685 16.6464C69.5192 17.1137 70.357 17.3473 71.2817 17.3473C72.2064 17.3473 73.0416 17.1137 73.7874 16.6464C74.5381 16.179 75.1322 15.4905 75.5697 14.5807C76.0121 13.6709 76.2334 12.5547 76.2334 11.2323ZM81.1329 18.8687V3.59592H86.2934C87.4866 3.59592 88.466 3.79976 89.2316 4.20743C89.9972 4.61013 90.564 5.16446 90.9319 5.87043C91.2998 6.57639 91.4837 7.37931 91.4837 8.27916C91.4837 9.17902 91.2998 9.97696 90.9319 10.673C90.564 11.369 89.9997 11.9159 89.2391 12.3136C88.4784 12.7064 87.5065 12.9027 86.3232 12.9027H82.1471V11.2323H86.2636C87.0789 11.2323 87.7352 11.113 88.2323 10.8743C88.7344 10.6357 89.0974 10.2976 89.3211 9.86013C89.5498 9.41766 89.6641 8.89067 89.6641 8.27916C89.6641 7.66766 89.5498 7.13321 89.3211 6.67583C89.0924 6.21844 88.727 5.86546 88.2249 5.61688C87.7227 5.36333 87.059 5.23655 86.2337 5.23655H82.9823V18.8687H81.1329ZM88.3218 12.0079L92.0803 18.8687H89.9326L86.2337 12.0079H88.3218ZM93.7303 5.23655V3.59592H105.185V5.23655H100.382V18.8687H98.5328V5.23655H93.7303ZM109.889 3.59592V18.8687H108.039V3.59592H109.889ZM113.597 18.8687V3.59592H122.754V5.23655H115.446V10.3971H122.068V12.0377H115.446V18.8687H113.597ZM138.808 11.2323C138.808 12.8431 138.517 14.2351 137.936 15.4084C137.354 16.5817 136.556 17.4866 135.542 18.1229C134.528 18.7593 133.369 19.0775 132.067 19.0775C130.764 19.0775 129.606 18.7593 128.592 18.1229C127.577 17.4866 126.78 16.5817 126.198 15.4084C125.616 14.2351 125.325 12.8431 125.325 11.2323C125.325 9.62149 125.616 8.22945 126.198 7.05615C126.78 5.88286 127.577 4.97803 128.592 4.34166C129.606 3.7053 130.764 3.38712 132.067 3.38712C133.369 3.38712 134.528 3.7053 135.542 4.34166C136.556 4.97803 137.354 5.88286 137.936 7.05615C138.517 8.22945 138.808 9.62149 138.808 11.2323ZM137.019 11.2323C137.019 9.90985 136.797 8.79372 136.355 7.88392C135.917 6.97412 135.323 6.28556 134.573 5.81823C133.827 5.3509 132.992 5.11723 132.067 5.11723C131.142 5.11723 130.304 5.3509 129.554 5.81823C128.808 6.28556 128.214 6.97412 127.771 7.88392C127.334 8.79372 127.115 9.90985 127.115 11.2323C127.115 12.5547 127.334 13.6709 127.771 14.5807C128.214 15.4905 128.808 16.179 129.554 16.6464C130.304 17.1137 131.142 17.3473 132.067 17.3473C132.992 17.3473 133.827 17.1137 134.573 16.6464C135.323 16.179 135.917 15.4905 136.355 14.5807C136.797 13.6709 137.019 12.5547 137.019 11.2323ZM141.918 18.8687V3.59592H143.767V17.228H150.867V18.8687H141.918ZM155.58 3.59592V18.8687H153.731V3.59592H155.58ZM172.175 11.2323C172.175 12.8431 171.884 14.2351 171.302 15.4084C170.72 16.5817 169.922 17.4866 168.908 18.1229C167.894 18.7593 166.736 19.0775 165.433 19.0775C164.13 19.0775 162.972 18.7593 161.958 18.1229C160.944 17.4866 160.146 16.5817 159.564 15.4084C158.982 14.2351 158.692 12.8431 158.692 11.2323C158.692 9.62149 158.982 8.22945 159.564 7.05615C160.146 5.88286 160.944 4.97803 161.958 4.34166C162.972 3.7053 164.13 3.38712 165.433 3.38712C166.736 3.38712 167.894 3.7053 168.908 4.34166C169.922 4.97803 170.72 5.88286 171.302 7.05615C171.884 8.22945 172.175 9.62149 172.175 11.2323ZM170.385 11.2323C170.385 9.90985 170.164 8.79372 169.721 7.88392C169.284 6.97412 168.689 6.28556 167.939 5.81823C167.193 5.3509 166.358 5.11723 165.433 5.11723C164.508 5.11723 163.671 5.3509 162.92 5.81823C162.174 6.28556 161.58 6.97412 161.138 7.88392C160.7 8.79372 160.481 9.90985 160.481 11.2323C160.481 12.5547 160.7 13.6709 161.138 14.5807C161.58 15.4905 162.174 16.179 162.92 16.6464C163.671 17.1137 164.508 17.3473 165.433 17.3473C166.358 17.3473 167.193 17.1137 167.939 16.6464C168.689 16.179 169.284 15.4905 169.721 14.5807C170.164 13.6709 170.385 12.5547 170.385 11.2323ZM50.6334 23.7806V22.6868H58.2698V23.7806H55.0681V32.8687H53.8351V23.7806H50.6334ZM60.1727 32.8687V22.6868H63.613C64.4084 22.6868 65.0614 22.8227 65.5718 23.0945C66.0822 23.363 66.4601 23.7325 66.7053 24.2032C66.9506 24.6738 67.0732 25.2091 67.0732 25.809C67.0732 26.4089 66.9506 26.9409 66.7053 27.4049C66.4601 27.8689 66.0839 28.2335 65.5768 28.4986C65.0697 28.7605 64.4217 28.8914 63.6329 28.8914H60.8488V27.7777H63.5931C64.1367 27.7777 64.5742 27.6982 64.9056 27.5391C65.2404 27.38 65.4823 27.1546 65.6315 26.863C65.7839 26.568 65.8602 26.2167 65.8602 25.809C65.8602 25.4013 65.7839 25.045 65.6315 24.7401C65.479 24.4352 65.2354 24.1999 64.9006 24.0341C64.5659 23.8651 64.1234 23.7806 63.5732 23.7806H61.4056V32.8687H60.1727ZM64.9653 28.2948L67.4709 32.8687H66.0391L63.5732 28.2948H64.9653ZM69.5453 32.8687H68.2527L71.9914 22.6868H73.2641L77.0027 32.8687H75.7101L72.6675 24.2976H72.588L69.5453 32.8687ZM70.0226 28.8914H75.2328V29.9851H70.0226V28.8914ZM86.3033 25.8687H85.0704C84.9975 25.514 84.8699 25.2025 84.6876 24.934C84.5086 24.6655 84.2898 24.4401 84.0313 24.2579C83.7761 24.0723 83.4927 23.933 83.1812 23.8402C82.8696 23.7474 82.5448 23.701 82.2067 23.701C81.5903 23.701 81.0318 23.8568 80.5313 24.1684C80.0342 24.4799 79.6381 24.939 79.3431 25.5455C79.0514 26.152 78.9056 26.8961 78.9056 27.7777C78.9056 28.6594 79.0514 29.4035 79.3431 30.01C79.6381 30.6165 80.0342 31.0756 80.5313 31.3871C81.0318 31.6987 81.5903 31.8544 82.2067 31.8544C82.5448 31.8544 82.8696 31.808 83.1812 31.7152C83.4927 31.6224 83.7761 31.4849 84.0313 31.3026C84.2898 31.117 84.5086 30.89 84.6876 30.6215C84.8699 30.3497 84.9975 30.0382 85.0704 29.6868H86.3033C86.2105 30.2072 86.0415 30.6729 85.7962 31.0839C85.551 31.4948 85.246 31.8445 84.8815 32.1329C84.5169 32.4179 84.1075 32.635 83.6535 32.7841C83.2027 32.9333 82.7205 33.0079 82.2067 33.0079C81.3384 33.0079 80.5661 32.7957 79.89 32.3715C79.2138 31.9473 78.6819 31.344 78.2941 30.5618C77.9063 29.7796 77.7124 28.8516 77.7124 27.7777C77.7124 26.7039 77.9063 25.7758 78.2941 24.9937C78.6819 24.2115 79.2138 23.6082 79.89 23.184C80.5661 22.7598 81.3384 22.5476 82.2067 22.5476C82.7205 22.5476 83.2027 22.6222 83.6535 22.7714C84.1075 22.9205 84.5169 23.1392 84.8815 23.4276C85.246 23.7126 85.551 24.0607 85.7962 24.4716C86.0415 24.8793 86.2105 25.345 86.3033 25.8687ZM88.2957 32.8687V22.6868H89.5287V27.738H89.648L94.2218 22.6868H95.8326L91.5571 27.2806L95.8326 32.8687H94.3412L90.8014 28.1357L89.5287 29.5675V32.8687H88.2957Z" fill="#29B8BB"/>
</svg>
