<svg width="51" height="42" viewBox="0 0 51 42" fill="none" xmlns="http://www.w3.org/2000/svg">
<circle cx="47.5541" cy="20.9283" r="2.93058" fill="white"/>
<circle cx="37.7415" cy="20.9283" r="2.19803" fill="white"/>
<circle cx="29.2121" cy="20.9283" r="1.64751" fill="white"/>
<circle cx="21.6443" cy="20.9283" r="1.23631" fill="white"/>
<circle cx="41.4327" cy="27.0099" r="2.93058" fill="white"/>
<circle cx="31.6201" cy="27.0099" r="2.19803" fill="white"/>
<circle cx="23.0907" cy="27.0099" r="1.64751" fill="white"/>
<circle cx="15.523" cy="27.0099" r="1.23631" fill="white"/>
<circle cx="41.4327" cy="14.8468" r="2.93058" fill="white"/>
<circle cx="31.6201" cy="14.8468" r="2.19803" fill="white"/>
<circle cx="23.0907" cy="14.8468" r="1.64751" fill="white"/>
<circle cx="15.523" cy="14.8468" r="1.23631" fill="white"/>
<circle cx="34.5381" cy="33.0754" r="2.93058" fill="white"/>
<circle cx="24.7254" cy="33.0753" r="2.19803" fill="white"/>
<circle cx="16.196" cy="33.0754" r="1.64751" fill="white"/>
<circle cx="8.62827" cy="33.0754" r="1.23631" fill="white"/>
<circle cx="34.5381" cy="8.78134" r="2.93058" fill="white"/>
<circle cx="24.7254" cy="8.78134" r="2.19803" fill="white"/>
<circle cx="16.196" cy="8.78136" r="1.64751" fill="white"/>
<circle cx="8.62827" cy="8.78135" r="1.23631" fill="white"/>
<circle cx="27.6308" cy="38.4744" r="2.93058" fill="white"/>
<circle cx="17.8181" cy="38.4743" r="2.19803" fill="white"/>
<circle cx="9.28874" cy="38.4743" r="1.64751" fill="white"/>
<circle cx="1.72099" cy="38.4743" r="1.23631" fill="white"/>
<circle cx="27.6308" cy="3.0889" r="2.93058" fill="white"/>
<circle cx="17.8181" cy="3.0889" r="2.19803" fill="white"/>
<circle cx="9.28874" cy="3.08891" r="1.64751" fill="white"/>
<circle cx="1.72099" cy="3.08891" r="1.23631" fill="white"/>
</svg>
