<svg width="51" height="51" viewBox="0 0 51 51" fill="none" xmlns="http://www.w3.org/2000/svg">
<rect x="0.685486" y="0.954041" width="50" height="50" fill="white"/>
<circle cx="42.6812" cy="26.067" r="2.25684" fill="#3CDCB0"/>
<ellipse cx="35.1245" cy="26.067" rx="1.69271" ry="1.69271" fill="#3CDCB0"/>
<ellipse cx="28.556" cy="26.067" rx="1.26875" ry="1.26875" fill="#3CDCB0"/>
<circle cx="22.728" cy="26.067" r="0.952083" fill="#3CDCB0"/>
<circle cx="37.9672" cy="30.7504" r="2.25684" fill="#3CDCB0"/>
<ellipse cx="30.4104" cy="30.7504" rx="1.69271" ry="1.69271" fill="#3CDCB0"/>
<ellipse cx="23.8419" cy="30.7504" rx="1.26875" ry="1.26875" fill="#3CDCB0"/>
<circle cx="18.014" cy="30.7504" r="0.952083" fill="#3CDCB0"/>
<circle cx="37.9672" cy="21.3836" r="2.25684" fill="#3CDCB0"/>
<ellipse cx="30.4104" cy="21.3836" rx="1.69271" ry="1.69271" fill="#3CDCB0"/>
<ellipse cx="23.8419" cy="21.3836" rx="1.26875" ry="1.26875" fill="#3CDCB0"/>
<circle cx="18.014" cy="21.3836" r="0.952083" fill="#3CDCB0"/>
<circle cx="32.6575" cy="35.4214" r="2.25684" fill="#3CDCB0"/>
<ellipse cx="25.1008" cy="35.4214" rx="1.69271" ry="1.69271" fill="#3CDCB0"/>
<ellipse cx="18.5323" cy="35.4214" rx="1.26875" ry="1.26875" fill="#3CDCB0"/>
<circle cx="12.7043" cy="35.4214" r="0.952083" fill="#3CDCB0"/>
<circle cx="32.6575" cy="16.7126" r="2.25684" fill="#3CDCB0"/>
<ellipse cx="25.1008" cy="16.7126" rx="1.69271" ry="1.69271" fill="#3CDCB0"/>
<ellipse cx="18.5323" cy="16.7126" rx="1.26875" ry="1.26875" fill="#3CDCB0"/>
<circle cx="12.7043" cy="16.7126" r="0.952083" fill="#3CDCB0"/>
<circle cx="27.3382" cy="39.5793" r="2.25684" fill="#3CDCB0"/>
<ellipse cx="19.7815" cy="39.5793" rx="1.69271" ry="1.69271" fill="#3CDCB0"/>
<ellipse cx="13.213" cy="39.5793" rx="1.26875" ry="1.26875" fill="#3CDCB0"/>
<circle cx="7.38501" cy="39.5793" r="0.952083" fill="#3CDCB0"/>
<circle cx="27.3382" cy="12.3288" r="2.25684" fill="#3CDCB0"/>
<ellipse cx="19.7815" cy="12.3288" rx="1.69271" ry="1.69271" fill="#3CDCB0"/>
<ellipse cx="13.213" cy="12.3288" rx="1.26875" ry="1.26875" fill="#3CDCB0"/>
<circle cx="7.38501" cy="12.3288" r="0.952083" fill="#3CDCB0"/>
</svg>
