<svg width="51" height="42" viewBox="0 0 51 42" fill="none" xmlns="http://www.w3.org/2000/svg">
<circle cx="48.028" cy="21.4233" r="2.93058" fill="#3CDCB0"/>
<circle cx="38.2154" cy="21.4233" r="2.19803" fill="#3CDCB0"/>
<circle cx="29.6859" cy="21.4233" r="1.64751" fill="#3CDCB0"/>
<circle cx="22.1182" cy="21.4233" r="1.23631" fill="#3CDCB0"/>
<circle cx="41.9067" cy="27.5048" r="2.93058" fill="#3CDCB0"/>
<circle cx="32.094" cy="27.5048" r="2.19803" fill="#3CDCB0"/>
<circle cx="23.5646" cy="27.5047" r="1.64751" fill="#3CDCB0"/>
<circle cx="15.9969" cy="27.5048" r="1.23631" fill="#3CDCB0"/>
<circle cx="41.9067" cy="15.3418" r="2.93058" fill="#3CDCB0"/>
<circle cx="32.094" cy="15.3418" r="2.19803" fill="#3CDCB0"/>
<circle cx="23.5646" cy="15.3418" r="1.64751" fill="#3CDCB0"/>
<circle cx="15.9969" cy="15.3418" r="1.23631" fill="#3CDCB0"/>
<circle cx="35.0119" cy="33.5702" r="2.93058" fill="#3CDCB0"/>
<circle cx="25.1993" cy="33.5702" r="2.19803" fill="#3CDCB0"/>
<circle cx="16.6699" cy="33.5702" r="1.64751" fill="#3CDCB0"/>
<circle cx="9.10215" cy="33.5702" r="1.23631" fill="#3CDCB0"/>
<circle cx="35.0119" cy="9.27628" r="2.93058" fill="#3CDCB0"/>
<circle cx="25.1993" cy="9.27628" r="2.19803" fill="#3CDCB0"/>
<circle cx="16.6699" cy="9.27629" r="1.64751" fill="#3CDCB0"/>
<circle cx="9.10215" cy="9.27629" r="1.23631" fill="#3CDCB0"/>
<circle cx="28.1046" cy="38.9694" r="2.93058" fill="#3CDCB0"/>
<circle cx="18.292" cy="38.9694" r="2.19803" fill="#3CDCB0"/>
<circle cx="9.76262" cy="38.9693" r="1.64751" fill="#3CDCB0"/>
<circle cx="2.19486" cy="38.9694" r="1.23631" fill="#3CDCB0"/>
<circle cx="28.1046" cy="3.58383" r="2.93058" fill="#3CDCB0"/>
<circle cx="18.292" cy="3.58383" r="2.19803" fill="#3CDCB0"/>
<circle cx="9.76262" cy="3.58385" r="1.64751" fill="#3CDCB0"/>
<circle cx="2.19486" cy="3.58384" r="1.23631" fill="#3CDCB0"/>
</svg>
