<svg width="53" height="53" viewBox="0 0 53 53" fill="none" xmlns="http://www.w3.org/2000/svg">
<rect x="1.62253" y="1.65326" width="50" height="50" rx="5" stroke="#3CDCB0" stroke-width="2"/>
<circle cx="43.6182" cy="26.7662" r="2.25684" fill="#3CDCB0"/>
<circle cx="36.0615" cy="26.7662" r="1.69271" fill="#3CDCB0"/>
<circle cx="29.493" cy="26.7662" r="1.26875" fill="#3CDCB0"/>
<circle cx="23.6651" cy="26.7662" r="0.952083" fill="#3CDCB0"/>
<circle cx="38.9042" cy="31.4496" r="2.25684" fill="#3CDCB0"/>
<circle cx="31.3475" cy="31.4496" r="1.69271" fill="#3CDCB0"/>
<circle cx="24.7789" cy="31.4496" r="1.26875" fill="#3CDCB0"/>
<circle cx="18.951" cy="31.4496" r="0.952083" fill="#3CDCB0"/>
<circle cx="38.9042" cy="22.0828" r="2.25684" fill="#3CDCB0"/>
<circle cx="31.3475" cy="22.0828" r="1.69271" fill="#3CDCB0"/>
<circle cx="24.7789" cy="22.0828" r="1.26875" fill="#3CDCB0"/>
<circle cx="18.951" cy="22.0828" r="0.952083" fill="#3CDCB0"/>
<circle cx="33.5946" cy="36.1206" r="2.25684" fill="#3CDCB0"/>
<circle cx="26.0379" cy="36.1206" r="1.69271" fill="#3CDCB0"/>
<circle cx="19.4693" cy="36.1206" r="1.26875" fill="#3CDCB0"/>
<circle cx="13.6414" cy="36.1206" r="0.952083" fill="#3CDCB0"/>
<circle cx="33.5946" cy="17.4118" r="2.25684" fill="#3CDCB0"/>
<circle cx="26.0379" cy="17.4118" r="1.69271" fill="#3CDCB0"/>
<circle cx="19.4693" cy="17.4118" r="1.26875" fill="#3CDCB0"/>
<circle cx="13.6414" cy="17.4118" r="0.952083" fill="#3CDCB0"/>
<circle cx="28.2752" cy="40.2785" r="2.25684" fill="#3CDCB0"/>
<circle cx="20.7185" cy="40.2785" r="1.69271" fill="#3CDCB0"/>
<circle cx="14.15" cy="40.2785" r="1.26875" fill="#3CDCB0"/>
<circle cx="8.32205" cy="40.2785" r="0.952083" fill="#3CDCB0"/>
<circle cx="28.2752" cy="13.028" r="2.25684" fill="#3CDCB0"/>
<circle cx="20.7185" cy="13.028" r="1.69271" fill="#3CDCB0"/>
<circle cx="14.15" cy="13.028" r="1.26875" fill="#3CDCB0"/>
<circle cx="8.32205" cy="13.028" r="0.952083" fill="#3CDCB0"/>
</svg>
