<svg width="53" height="53" viewBox="0 0 53 53" fill="none" xmlns="http://www.w3.org/2000/svg">
<rect x="1.73056" y="1.24274" width="50" height="50" rx="5" stroke="white" stroke-width="2"/>
<circle cx="43.7263" cy="26.3557" r="2.25684" fill="white"/>
<circle cx="36.1696" cy="26.3557" r="1.69271" fill="white"/>
<circle cx="29.601" cy="26.3557" r="1.26875" fill="white"/>
<circle cx="23.7731" cy="26.3558" r="0.952083" fill="white"/>
<circle cx="39.0122" cy="31.0391" r="2.25684" fill="white"/>
<circle cx="31.4555" cy="31.0391" r="1.69271" fill="white"/>
<circle cx="24.887" cy="31.0391" r="1.26875" fill="white"/>
<circle cx="19.059" cy="31.0391" r="0.952083" fill="white"/>
<circle cx="39.0122" cy="21.6724" r="2.25684" fill="white"/>
<circle cx="31.4555" cy="21.6724" r="1.69271" fill="white"/>
<circle cx="24.887" cy="21.6724" r="1.26875" fill="white"/>
<circle cx="19.059" cy="21.6724" r="0.952083" fill="white"/>
<circle cx="33.7026" cy="35.7101" r="2.25684" fill="white"/>
<circle cx="26.1459" cy="35.71" r="1.69271" fill="white"/>
<circle cx="19.5773" cy="35.71" r="1.26875" fill="white"/>
<circle cx="13.7494" cy="35.71" r="0.952083" fill="white"/>
<circle cx="33.7026" cy="17.0013" r="2.25684" fill="white"/>
<circle cx="26.1459" cy="17.0012" r="1.69271" fill="white"/>
<circle cx="19.5773" cy="17.0012" r="1.26875" fill="white"/>
<circle cx="13.7494" cy="17.0013" r="0.952083" fill="white"/>
<circle cx="28.3832" cy="39.868" r="2.25684" fill="white"/>
<circle cx="20.8266" cy="39.868" r="1.69271" fill="white"/>
<circle cx="14.258" cy="39.868" r="1.26875" fill="white"/>
<circle cx="8.43008" cy="39.868" r="0.952083" fill="white"/>
<circle cx="28.3832" cy="12.6175" r="2.25684" fill="white"/>
<circle cx="20.8266" cy="12.6175" r="1.69271" fill="white"/>
<circle cx="14.258" cy="12.6175" r="1.26875" fill="white"/>
<circle cx="8.43008" cy="12.6175" r="0.952083" fill="white"/>
</svg>
