<svg width="51" height="51" viewBox="0 0 51 51" fill="none" xmlns="http://www.w3.org/2000/svg">
<rect x="0.821594" y="0.225037" width="50" height="50" fill="#11111F"/>
<circle cx="42.8173" cy="25.338" r="2.25684" fill="#3CDCB0"/>
<circle cx="35.2606" cy="25.338" r="1.69271" fill="#3CDCB0"/>
<circle cx="28.692" cy="25.338" r="1.26875" fill="#3CDCB0"/>
<circle cx="22.8641" cy="25.338" r="0.952083" fill="#3CDCB0"/>
<circle cx="38.1033" cy="30.0214" r="2.25684" fill="#3CDCB0"/>
<circle cx="30.5465" cy="30.0214" r="1.69271" fill="#3CDCB0"/>
<circle cx="23.978" cy="30.0214" r="1.26875" fill="#3CDCB0"/>
<circle cx="18.1501" cy="30.0214" r="0.952083" fill="#3CDCB0"/>
<circle cx="38.1033" cy="20.6546" r="2.25684" fill="#3CDCB0"/>
<circle cx="30.5465" cy="20.6546" r="1.69271" fill="#3CDCB0"/>
<circle cx="23.978" cy="20.6546" r="1.26875" fill="#3CDCB0"/>
<circle cx="18.1501" cy="20.6546" r="0.952083" fill="#3CDCB0"/>
<circle cx="32.7936" cy="34.6924" r="2.25684" fill="#3CDCB0"/>
<circle cx="25.237" cy="34.6924" r="1.69271" fill="#3CDCB0"/>
<circle cx="18.6684" cy="34.6924" r="1.26875" fill="#3CDCB0"/>
<circle cx="12.8405" cy="34.6924" r="0.952083" fill="#3CDCB0"/>
<circle cx="32.7936" cy="15.9836" r="2.25684" fill="#3CDCB0"/>
<circle cx="25.237" cy="15.9836" r="1.69271" fill="#3CDCB0"/>
<circle cx="18.6684" cy="15.9836" r="1.26875" fill="#3CDCB0"/>
<circle cx="12.8405" cy="15.9836" r="0.952083" fill="#3CDCB0"/>
<circle cx="27.4743" cy="38.8503" r="2.25684" fill="#3CDCB0"/>
<circle cx="19.9176" cy="38.8503" r="1.69271" fill="#3CDCB0"/>
<circle cx="13.349" cy="38.8503" r="1.26875" fill="#3CDCB0"/>
<circle cx="7.52111" cy="38.8503" r="0.952083" fill="#3CDCB0"/>
<circle cx="27.4743" cy="11.5998" r="2.25684" fill="#3CDCB0"/>
<circle cx="19.9176" cy="11.5998" r="1.69271" fill="#3CDCB0"/>
<circle cx="13.349" cy="11.5998" r="1.26875" fill="#3CDCB0"/>
<circle cx="7.52111" cy="11.5998" r="0.952083" fill="#3CDCB0"/>
</svg>
