<svg width="51" height="51" viewBox="0 0 51 51" fill="none" xmlns="http://www.w3.org/2000/svg">
<rect x="0.455872" y="0.506653" width="50" height="50" fill="black"/>
<circle cx="42.4516" cy="25.6196" r="2.25684" fill="white"/>
<circle cx="34.8949" cy="25.6196" r="1.69271" fill="white"/>
<circle cx="28.3264" cy="25.6196" r="1.26875" fill="white"/>
<circle cx="22.4984" cy="25.6196" r="0.952083" fill="white"/>
<circle cx="37.7376" cy="30.303" r="2.25684" fill="white"/>
<circle cx="30.1808" cy="30.303" r="1.69271" fill="white"/>
<circle cx="23.6123" cy="30.303" r="1.26875" fill="white"/>
<circle cx="17.7844" cy="30.303" r="0.952083" fill="white"/>
<circle cx="37.7376" cy="20.9362" r="2.25684" fill="white"/>
<circle cx="30.1808" cy="20.9362" r="1.69271" fill="white"/>
<circle cx="23.6123" cy="20.9362" r="1.26875" fill="white"/>
<circle cx="17.7844" cy="20.9362" r="0.952083" fill="white"/>
<circle cx="32.4279" cy="34.974" r="2.25684" fill="white"/>
<circle cx="24.8712" cy="34.974" r="1.69271" fill="white"/>
<circle cx="18.3027" cy="34.974" r="1.26875" fill="white"/>
<circle cx="12.4747" cy="34.974" r="0.952083" fill="white"/>
<circle cx="32.4279" cy="16.2652" r="2.25684" fill="white"/>
<circle cx="24.8712" cy="16.2652" r="1.69271" fill="white"/>
<circle cx="18.3027" cy="16.2652" r="1.26875" fill="white"/>
<circle cx="12.4747" cy="16.2652" r="0.952083" fill="white"/>
<circle cx="27.1086" cy="39.1319" r="2.25684" fill="white"/>
<circle cx="19.5518" cy="39.1319" r="1.69271" fill="white"/>
<circle cx="12.9833" cy="39.1319" r="1.26875" fill="white"/>
<circle cx="7.15539" cy="39.1319" r="0.952083" fill="white"/>
<circle cx="27.1086" cy="11.8814" r="2.25684" fill="white"/>
<circle cx="19.5518" cy="11.8814" r="1.69271" fill="white"/>
<circle cx="12.9833" cy="11.8814" r="1.26875" fill="white"/>
<circle cx="7.15539" cy="11.8814" r="0.952083" fill="white"/>
</svg>
