<svg width="53" height="53" viewBox="0 0 53 53" fill="none" xmlns="http://www.w3.org/2000/svg">
<rect x="1.87506" y="1.49384" width="50" height="50" rx="5" stroke="#29B8BB" stroke-width="2"/>
<circle cx="43.8708" cy="26.6068" r="2.25684" fill="#29B8BB"/>
<circle cx="36.3141" cy="26.6068" r="1.69271" fill="#29B8BB"/>
<circle cx="29.7455" cy="26.6068" r="1.26875" fill="#29B8BB"/>
<circle cx="23.9176" cy="26.6069" r="0.952083" fill="#29B8BB"/>
<circle cx="39.1567" cy="31.2902" r="2.25684" fill="#29B8BB"/>
<circle cx="31.6" cy="31.2901" r="1.69271" fill="#29B8BB"/>
<circle cx="25.0315" cy="31.2901" r="1.26875" fill="#29B8BB"/>
<circle cx="19.2035" cy="31.2901" r="0.952083" fill="#29B8BB"/>
<circle cx="39.1567" cy="21.9234" r="2.25684" fill="#29B8BB"/>
<circle cx="31.6" cy="21.9234" r="1.69271" fill="#29B8BB"/>
<circle cx="25.0315" cy="21.9234" r="1.26875" fill="#29B8BB"/>
<circle cx="19.2035" cy="21.9234" r="0.952083" fill="#29B8BB"/>
<circle cx="33.8471" cy="35.9612" r="2.25684" fill="#29B8BB"/>
<circle cx="26.2904" cy="35.9611" r="1.69271" fill="#29B8BB"/>
<circle cx="19.7218" cy="35.9611" r="1.26875" fill="#29B8BB"/>
<circle cx="13.8939" cy="35.9611" r="0.952083" fill="#29B8BB"/>
<circle cx="33.8471" cy="17.2524" r="2.25684" fill="#29B8BB"/>
<circle cx="26.2904" cy="17.2523" r="1.69271" fill="#29B8BB"/>
<circle cx="19.7218" cy="17.2523" r="1.26875" fill="#29B8BB"/>
<circle cx="13.8939" cy="17.2524" r="0.952083" fill="#29B8BB"/>
<circle cx="28.5277" cy="40.1191" r="2.25684" fill="#29B8BB"/>
<circle cx="20.9711" cy="40.1191" r="1.69271" fill="#29B8BB"/>
<circle cx="14.4025" cy="40.1191" r="1.26875" fill="#29B8BB"/>
<circle cx="8.57458" cy="40.1191" r="0.952083" fill="#29B8BB"/>
<circle cx="28.5277" cy="12.8686" r="2.25684" fill="#29B8BB"/>
<circle cx="20.9711" cy="12.8686" r="1.69271" fill="#29B8BB"/>
<circle cx="14.4025" cy="12.8686" r="1.26875" fill="#29B8BB"/>
<circle cx="8.57458" cy="12.8686" r="0.952083" fill="#29B8BB"/>
</svg>
