<svg width="51" height="51" viewBox="0 0 51 51" fill="none" xmlns="http://www.w3.org/2000/svg">
<rect x="0.507263" y="0.190979" width="50" height="50" fill="white"/>
<circle cx="42.503" cy="25.304" r="2.25684" fill="#11111F"/>
<circle cx="34.9462" cy="25.3039" r="1.69271" fill="#11111F"/>
<circle cx="28.3777" cy="25.304" r="1.26875" fill="#11111F"/>
<circle cx="22.5498" cy="25.304" r="0.952083" fill="#11111F"/>
<circle cx="37.7889" cy="29.9873" r="2.25684" fill="#11111F"/>
<circle cx="30.2322" cy="29.9873" r="1.69271" fill="#11111F"/>
<circle cx="23.6637" cy="29.9873" r="1.26875" fill="#11111F"/>
<circle cx="17.8358" cy="29.9873" r="0.952083" fill="#11111F"/>
<circle cx="37.7889" cy="20.6206" r="2.25684" fill="#11111F"/>
<circle cx="30.2322" cy="20.6206" r="1.69271" fill="#11111F"/>
<circle cx="23.6637" cy="20.6206" r="1.26875" fill="#11111F"/>
<circle cx="17.8358" cy="20.6205" r="0.952083" fill="#11111F"/>
<circle cx="32.4793" cy="34.6583" r="2.25684" fill="#11111F"/>
<circle cx="24.9226" cy="34.6583" r="1.69271" fill="#11111F"/>
<circle cx="18.3541" cy="34.6583" r="1.26875" fill="#11111F"/>
<circle cx="12.5261" cy="34.6583" r="0.952083" fill="#11111F"/>
<circle cx="32.4793" cy="15.9495" r="2.25684" fill="#11111F"/>
<circle cx="24.9226" cy="15.9495" r="1.69271" fill="#11111F"/>
<circle cx="18.3541" cy="15.9495" r="1.26875" fill="#11111F"/>
<circle cx="12.5261" cy="15.9495" r="0.952083" fill="#11111F"/>
<circle cx="27.16" cy="38.8162" r="2.25684" fill="#11111F"/>
<circle cx="19.6032" cy="38.8162" r="1.69271" fill="#11111F"/>
<circle cx="13.0347" cy="38.8162" r="1.26875" fill="#11111F"/>
<circle cx="7.20678" cy="38.8162" r="0.952083" fill="#11111F"/>
<circle cx="27.16" cy="11.5657" r="2.25684" fill="#11111F"/>
<circle cx="19.6032" cy="11.5658" r="1.69271" fill="#11111F"/>
<circle cx="13.0347" cy="11.5657" r="1.26875" fill="#11111F"/>
<circle cx="7.20678" cy="11.5657" r="0.952083" fill="#11111F"/>
</svg>
