<svg width="51" height="51" viewBox="0 0 51 51" fill="none" xmlns="http://www.w3.org/2000/svg">
<rect x="0.546326" y="0.705078" width="50" height="50" fill="#3CDCB0"/>
<circle cx="42.5421" cy="25.8181" r="2.25684" fill="#11111F"/>
<circle cx="34.9853" cy="25.818" r="1.69271" fill="#11111F"/>
<circle cx="28.4168" cy="25.8181" r="1.26875" fill="#11111F"/>
<circle cx="22.5889" cy="25.8181" r="0.952083" fill="#11111F"/>
<circle cx="37.828" cy="30.5014" r="2.25684" fill="#11111F"/>
<circle cx="30.2713" cy="30.5014" r="1.69271" fill="#11111F"/>
<circle cx="23.7028" cy="30.5014" r="1.26875" fill="#11111F"/>
<circle cx="17.8748" cy="30.5014" r="0.952083" fill="#11111F"/>
<circle cx="37.828" cy="21.1347" r="2.25684" fill="#11111F"/>
<circle cx="30.2713" cy="21.1347" r="1.69271" fill="#11111F"/>
<circle cx="23.7028" cy="21.1347" r="1.26875" fill="#11111F"/>
<circle cx="17.8748" cy="21.1346" r="0.952083" fill="#11111F"/>
<circle cx="32.5184" cy="35.1724" r="2.25684" fill="#11111F"/>
<circle cx="24.9617" cy="35.1724" r="1.69271" fill="#11111F"/>
<circle cx="18.3931" cy="35.1724" r="1.26875" fill="#11111F"/>
<circle cx="12.5652" cy="35.1724" r="0.952083" fill="#11111F"/>
<circle cx="32.5184" cy="16.4636" r="2.25684" fill="#11111F"/>
<circle cx="24.9617" cy="16.4636" r="1.69271" fill="#11111F"/>
<circle cx="18.3931" cy="16.4636" r="1.26875" fill="#11111F"/>
<circle cx="12.5652" cy="16.4636" r="0.952083" fill="#11111F"/>
<circle cx="27.199" cy="39.3303" r="2.25684" fill="#11111F"/>
<circle cx="19.6423" cy="39.3303" r="1.69271" fill="#11111F"/>
<circle cx="13.0737" cy="39.3303" r="1.26875" fill="#11111F"/>
<circle cx="7.24585" cy="39.3303" r="0.952083" fill="#11111F"/>
<circle cx="27.199" cy="12.0798" r="2.25684" fill="#11111F"/>
<circle cx="19.6423" cy="12.0799" r="1.69271" fill="#11111F"/>
<circle cx="13.0737" cy="12.0798" r="1.26875" fill="#11111F"/>
<circle cx="7.24585" cy="12.0798" r="0.952083" fill="#11111F"/>
</svg>
