<svg width="51" height="42" viewBox="0 0 51 42" fill="none" xmlns="http://www.w3.org/2000/svg">
<circle cx="47.9481" cy="21.2958" r="2.93058" fill="#11111F"/>
<circle cx="38.1355" cy="21.2958" r="2.19803" fill="#11111F"/>
<circle cx="29.6061" cy="21.2958" r="1.64751" fill="#11111F"/>
<circle cx="22.0383" cy="21.2958" r="1.23631" fill="#11111F"/>
<circle cx="41.8267" cy="27.3774" r="2.93058" fill="#11111F"/>
<circle cx="32.0141" cy="27.3774" r="2.19803" fill="#11111F"/>
<circle cx="23.4847" cy="27.3774" r="1.64751" fill="#11111F"/>
<circle cx="15.917" cy="27.3774" r="1.23631" fill="#11111F"/>
<circle cx="41.8267" cy="15.2143" r="2.93058" fill="#11111F"/>
<circle cx="32.0141" cy="15.2143" r="2.19803" fill="#11111F"/>
<circle cx="23.4847" cy="15.2143" r="1.64751" fill="#11111F"/>
<circle cx="15.917" cy="15.2143" r="1.23631" fill="#11111F"/>
<circle cx="34.932" cy="33.4428" r="2.93058" fill="#11111F"/>
<circle cx="25.1194" cy="33.4428" r="2.19803" fill="#11111F"/>
<circle cx="16.59" cy="33.4428" r="1.64751" fill="#11111F"/>
<circle cx="9.02226" cy="33.4428" r="1.23631" fill="#11111F"/>
<circle cx="34.932" cy="9.14884" r="2.93058" fill="#11111F"/>
<circle cx="25.1194" cy="9.14884" r="2.19803" fill="#11111F"/>
<circle cx="16.59" cy="9.14885" r="1.64751" fill="#11111F"/>
<circle cx="9.02226" cy="9.14884" r="1.23631" fill="#11111F"/>
<circle cx="28.0248" cy="38.842" r="2.93058" fill="#11111F"/>
<circle cx="18.2121" cy="38.8419" r="2.19803" fill="#11111F"/>
<circle cx="9.68273" cy="38.8419" r="1.64751" fill="#11111F"/>
<circle cx="2.11497" cy="38.8419" r="1.23631" fill="#11111F"/>
<circle cx="28.0248" cy="3.45639" r="2.93058" fill="#11111F"/>
<circle cx="18.2121" cy="3.45639" r="2.19803" fill="#11111F"/>
<circle cx="9.68273" cy="3.45641" r="1.64751" fill="#11111F"/>
<circle cx="2.11497" cy="3.4564" r="1.23631" fill="#11111F"/>
</svg>
