<svg width="201" height="51" viewBox="0 0 201 51" fill="none" xmlns="http://www.w3.org/2000/svg">
<rect x="0.348022" y="0.27771" width="200" height="50" fill="black"/>
<ellipse cx="55.0175" cy="25.4081" rx="2.5" ry="2.60417" fill="white"/>
<ellipse cx="46.6466" cy="25.408" rx="1.87508" ry="1.95321" fill="white"/>
<ellipse cx="39.3704" cy="25.408" rx="1.40545" ry="1.46401" fill="white"/>
<ellipse cx="32.9145" cy="25.4081" rx="1.05466" ry="1.09861" fill="white"/>
<ellipse cx="49.7955" cy="30.8122" rx="2.5" ry="2.60417" fill="white"/>
<ellipse cx="41.4246" cy="30.8122" rx="1.87508" ry="1.95321" fill="white"/>
<ellipse cx="34.1484" cy="30.8122" rx="1.40545" ry="1.46401" fill="white"/>
<ellipse cx="27.6925" cy="30.8122" rx="1.05466" ry="1.09861" fill="white"/>
<ellipse cx="49.7955" cy="20.0039" rx="2.5" ry="2.60417" fill="white"/>
<ellipse cx="41.4246" cy="20.0039" rx="1.87508" ry="1.95321" fill="white"/>
<ellipse cx="34.1484" cy="20.0039" rx="1.40545" ry="1.46401" fill="white"/>
<ellipse cx="27.6925" cy="20.0039" rx="1.05466" ry="1.09861" fill="white"/>
<ellipse cx="43.9138" cy="36.2021" rx="2.5" ry="2.60417" fill="white"/>
<ellipse cx="35.543" cy="36.2021" rx="1.87508" ry="1.95321" fill="white"/>
<ellipse cx="28.2667" cy="36.202" rx="1.40545" ry="1.46401" fill="white"/>
<ellipse cx="21.8109" cy="36.2021" rx="1.05466" ry="1.09861" fill="white"/>
<ellipse cx="43.9138" cy="14.614" rx="2.5" ry="2.60417" fill="white"/>
<ellipse cx="35.543" cy="14.614" rx="1.87508" ry="1.95321" fill="white"/>
<ellipse cx="28.2667" cy="14.614" rx="1.40545" ry="1.46401" fill="white"/>
<ellipse cx="21.8109" cy="14.614" rx="1.05466" ry="1.09861" fill="white"/>
<ellipse cx="38.0214" cy="40.9999" rx="2.5" ry="2.60417" fill="white"/>
<ellipse cx="29.6505" cy="40.9998" rx="1.87508" ry="1.95321" fill="white"/>
<ellipse cx="22.3743" cy="40.9998" rx="1.40545" ry="1.46401" fill="white"/>
<ellipse cx="15.9184" cy="40.9999" rx="1.05466" ry="1.09861" fill="white"/>
<ellipse cx="38.0214" cy="9.55558" rx="2.5" ry="2.60417" fill="white"/>
<ellipse cx="29.6505" cy="9.55557" rx="1.87508" ry="1.95321" fill="white"/>
<ellipse cx="22.3743" cy="9.55556" rx="1.40545" ry="1.46401" fill="white"/>
<ellipse cx="15.9184" cy="9.55558" rx="1.05466" ry="1.09861" fill="white"/>
<path d="M66.4266 25.7777V10.505H71.5872C72.7853 10.505 73.7647 10.7212 74.5254 11.1538C75.291 11.5813 75.8577 12.1605 76.2256 12.8913C76.5935 13.6222 76.7775 14.4375 76.7775 15.3374C76.7775 16.2372 76.5935 17.0551 76.2256 17.7908C75.8627 18.5266 75.3009 19.1133 74.5403 19.5508C73.7796 19.9833 72.8052 20.1996 71.617 20.1996H67.9181V18.559H71.5573C72.3776 18.559 73.0364 18.4173 73.5335 18.1339C74.0307 17.8505 74.3911 17.4677 74.6149 16.9855C74.8435 16.4982 74.9579 15.9489 74.9579 15.3374C74.9579 14.7259 74.8435 14.179 74.6149 13.6967C74.3911 13.2145 74.0282 12.8367 73.5261 12.5632C73.0239 12.2848 72.3577 12.1456 71.5275 12.1456H68.2761V25.7777H66.4266ZM92.6431 18.1413C92.6431 19.7521 92.3522 21.1442 91.7706 22.3175C91.1889 23.4908 90.391 24.3956 89.3767 25.032C88.3625 25.6683 87.2042 25.9865 85.9016 25.9865C84.599 25.9865 83.4407 25.6683 82.4265 25.032C81.4123 24.3956 80.6143 23.4908 80.0326 22.3175C79.451 21.1442 79.1601 19.7521 79.1601 18.1413C79.1601 16.5306 79.451 15.1385 80.0326 13.9652C80.6143 12.7919 81.4123 11.8871 82.4265 11.2507C83.4407 10.6144 84.599 10.2962 85.9016 10.2962C87.2042 10.2962 88.3625 10.6144 89.3767 11.2507C90.391 11.8871 91.1889 12.7919 91.7706 13.9652C92.3522 15.1385 92.6431 16.5306 92.6431 18.1413ZM90.8533 18.1413C90.8533 16.8189 90.6321 15.7028 90.1896 14.793C89.7521 13.8832 89.158 13.1946 88.4073 12.7273C87.6615 12.26 86.8263 12.0263 85.9016 12.0263C84.9769 12.0263 84.1392 12.26 83.3885 12.7273C82.6427 13.1946 82.0486 13.8832 81.6062 14.793C81.1687 15.7028 80.9499 16.8189 80.9499 18.1413C80.9499 19.4638 81.1687 20.5799 81.6062 21.4897C82.0486 22.3995 82.6427 23.0881 83.3885 23.5554C84.1392 24.0227 84.9769 24.2564 85.9016 24.2564C86.8263 24.2564 87.6615 24.0227 88.4073 23.5554C89.158 23.0881 89.7521 22.3995 90.1896 21.4897C90.6321 20.5799 90.8533 19.4638 90.8533 18.1413ZM95.7528 25.7777V10.505H100.913C102.107 10.505 103.086 10.7088 103.852 11.1165C104.617 11.5192 105.184 12.0735 105.552 12.7795C105.92 13.4855 106.104 14.2884 106.104 15.1882C106.104 16.0881 105.92 16.886 105.552 17.582C105.184 18.2781 104.62 18.8249 103.859 19.2227C103.098 19.6154 102.126 19.8118 100.943 19.8118H96.767V18.1413H100.883C101.699 18.1413 102.355 18.022 102.852 17.7834C103.354 17.5448 103.717 17.2067 103.941 16.7692C104.17 16.3267 104.284 15.7997 104.284 15.1882C104.284 14.5767 104.17 14.0423 103.941 13.5849C103.712 13.1275 103.347 12.7745 102.845 12.5259C102.343 12.2724 101.679 12.1456 100.854 12.1456H97.6022V25.7777H95.7528ZM102.942 18.9169L106.7 25.7777H104.553L100.854 18.9169H102.942ZM108.35 12.1456V10.505H119.805V12.1456H115.002V25.7777H113.153V12.1456H108.35ZM124.508 10.505V25.7777H122.659V10.505H124.508ZM128.217 25.7777V10.505H137.374V12.1456H130.066V17.3061H136.688V18.9467H130.066V25.7777H128.217ZM153.428 18.1413C153.428 19.7521 153.137 21.1442 152.556 22.3175C151.974 23.4908 151.176 24.3956 150.162 25.032C149.148 25.6683 147.989 25.9865 146.687 25.9865C145.384 25.9865 144.226 25.6683 143.212 25.032C142.197 24.3956 141.399 23.4908 140.818 22.3175C140.236 21.1442 139.945 19.7521 139.945 18.1413C139.945 16.5306 140.236 15.1385 140.818 13.9652C141.399 12.7919 142.197 11.8871 143.212 11.2507C144.226 10.6144 145.384 10.2962 146.687 10.2962C147.989 10.2962 149.148 10.6144 150.162 11.2507C151.176 11.8871 151.974 12.7919 152.556 13.9652C153.137 15.1385 153.428 16.5306 153.428 18.1413ZM151.638 18.1413C151.638 16.8189 151.417 15.7028 150.975 14.793C150.537 13.8832 149.943 13.1946 149.192 12.7273C148.447 12.26 147.611 12.0263 146.687 12.0263C145.762 12.0263 144.924 12.26 144.174 12.7273C143.428 13.1946 142.834 13.8832 142.391 14.793C141.954 15.7028 141.735 16.8189 141.735 18.1413C141.735 19.4638 141.954 20.5799 142.391 21.4897C142.834 22.3995 143.428 23.0881 144.174 23.5554C144.924 24.0227 145.762 24.2564 146.687 24.2564C147.611 24.2564 148.447 24.0227 149.192 23.5554C149.943 23.0881 150.537 22.3995 150.975 21.4897C151.417 20.5799 151.638 19.4638 151.638 18.1413ZM156.538 25.7777V10.505H158.387V24.1371H165.487V25.7777H156.538ZM170.2 10.505V25.7777H168.35V10.505H170.2ZM186.794 18.1413C186.794 19.7521 186.504 21.1442 185.922 22.3175C185.34 23.4908 184.542 24.3956 183.528 25.032C182.514 25.6683 181.356 25.9865 180.053 25.9865C178.75 25.9865 177.592 25.6683 176.578 25.032C175.564 24.3956 174.766 23.4908 174.184 22.3175C173.602 21.1442 173.311 19.7521 173.311 18.1413C173.311 16.5306 173.602 15.1385 174.184 13.9652C174.766 12.7919 175.564 11.8871 176.578 11.2507C177.592 10.6144 178.75 10.2962 180.053 10.2962C181.356 10.2962 182.514 10.6144 183.528 11.2507C184.542 11.8871 185.34 12.7919 185.922 13.9652C186.504 15.1385 186.794 16.5306 186.794 18.1413ZM185.005 18.1413C185.005 16.8189 184.783 15.7028 184.341 14.793C183.903 13.8832 183.309 13.1946 182.559 12.7273C181.813 12.26 180.978 12.0263 180.053 12.0263C179.128 12.0263 178.291 12.26 177.54 12.7273C176.794 13.1946 176.2 13.8832 175.758 14.793C175.32 15.7028 175.101 16.8189 175.101 18.1413C175.101 19.4638 175.32 20.5799 175.758 21.4897C176.2 22.3995 176.794 23.0881 177.54 23.5554C178.291 24.0227 179.128 24.2564 180.053 24.2564C180.978 24.2564 181.813 24.0227 182.559 23.5554C183.309 23.0881 183.903 22.3995 184.341 21.4897C184.783 20.5799 185.005 19.4638 185.005 18.1413ZM65.2533 30.6896V29.5959H72.8897V30.6896H69.688V39.7777H68.4551V30.6896H65.2533ZM74.7926 39.7777V29.5959H78.2329C79.0284 29.5959 79.6813 29.7318 80.1917 30.0036C80.7022 30.272 81.08 30.6416 81.3253 31.1122C81.5705 31.5829 81.6932 32.1181 81.6932 32.7181C81.6932 33.318 81.5705 33.8499 81.3253 34.3139C81.08 34.7779 80.7038 35.1425 80.1967 35.4077C79.6896 35.6695 79.0416 35.8004 78.2528 35.8004H75.4687V34.6868H78.213C78.7566 34.6868 79.1941 34.6073 79.5255 34.4482C79.8603 34.2891 80.1022 34.0637 80.2514 33.772C80.4039 33.477 80.4801 33.1257 80.4801 32.7181C80.4801 32.3104 80.4039 31.9541 80.2514 31.6492C80.0989 31.3442 79.8553 31.1089 79.5206 30.9432C79.1858 30.7742 78.7433 30.6896 78.1932 30.6896H76.0255V39.7777H74.7926ZM79.5852 35.2038L82.0909 39.7777H80.6591L78.1932 35.2038H79.5852ZM84.1653 39.7777H82.8727L86.6113 29.5959H87.884L91.6227 39.7777H90.3301L87.2874 31.2067H87.2079L84.1653 39.7777ZM84.6426 35.8004H89.8528V36.8942H84.6426V35.8004ZM100.923 32.7777H99.6903C99.6174 32.4231 99.4898 32.1115 99.3075 31.8431C99.1285 31.5746 98.9098 31.3492 98.6513 31.1669C98.396 30.9813 98.1127 30.8421 97.8011 30.7493C97.4896 30.6565 97.1647 30.6101 96.8267 30.6101C96.2102 30.6101 95.6517 30.7659 95.1513 31.0774C94.6541 31.389 94.258 31.848 93.963 32.4546C93.6714 33.0611 93.5255 33.8052 93.5255 34.6868C93.5255 35.5684 93.6714 36.3125 93.963 36.919C94.258 37.5256 94.6541 37.9846 95.1513 38.2962C95.6517 38.6077 96.2102 38.7635 96.8267 38.7635C97.1647 38.7635 97.4896 38.7171 97.8011 38.6243C98.1127 38.5315 98.396 38.394 98.6513 38.2117C98.9098 38.0261 99.1285 37.799 99.3075 37.5306C99.4898 37.2588 99.6174 36.9472 99.6903 36.5959H100.923C100.83 37.1163 100.661 37.5819 100.416 37.9929C100.171 38.4039 99.866 38.7536 99.5014 39.0419C99.1368 39.327 98.7275 39.544 98.2734 39.6932C97.8227 39.8423 97.3404 39.9169 96.8267 39.9169C95.9583 39.9169 95.1861 39.7048 94.5099 39.2806C93.8338 38.8563 93.3018 38.2531 92.914 37.4709C92.5263 36.6887 92.3324 35.7607 92.3324 34.6868C92.3324 33.6129 92.5263 32.6849 92.914 31.9027C93.3018 31.1205 93.8338 30.5173 94.5099 30.0931C95.1861 29.6688 95.9583 29.4567 96.8267 29.4567C97.3404 29.4567 97.8227 29.5313 98.2734 29.6804C98.7275 29.8296 99.1368 30.0483 99.5014 30.3367C99.866 30.6217 100.171 30.9697 100.416 31.3807C100.661 31.7884 100.83 32.254 100.923 32.7777ZM102.916 39.7777V29.5959H104.149V34.647H104.268L108.842 29.5959H110.453L106.177 34.1896L110.453 39.7777H108.961L105.421 35.0448L104.149 36.4766V39.7777H102.916Z" fill="white"/>
</svg>
