<svg width="201" height="51" viewBox="0 0 201 51" fill="none" xmlns="http://www.w3.org/2000/svg">
<rect x="0.348022" y="0.643799" width="200" height="50" fill="#11111F"/>
<ellipse cx="55.0175" cy="25.7741" rx="2.5" ry="2.60417" fill="#3CDCB0"/>
<ellipse cx="46.6466" cy="25.7741" rx="1.87508" ry="1.95321" fill="#3CDCB0"/>
<ellipse cx="39.3704" cy="25.7741" rx="1.40545" ry="1.46401" fill="#3CDCB0"/>
<ellipse cx="32.9145" cy="25.7741" rx="1.05466" ry="1.09861" fill="#3CDCB0"/>
<ellipse cx="49.7955" cy="31.1783" rx="2.5" ry="2.60417" fill="#3CDCB0"/>
<ellipse cx="41.4246" cy="31.1782" rx="1.87508" ry="1.95321" fill="#3CDCB0"/>
<ellipse cx="34.1484" cy="31.1783" rx="1.40545" ry="1.46401" fill="#3CDCB0"/>
<ellipse cx="27.6926" cy="31.1783" rx="1.05466" ry="1.09861" fill="#3CDCB0"/>
<ellipse cx="49.7955" cy="20.37" rx="2.5" ry="2.60417" fill="#3CDCB0"/>
<ellipse cx="41.4246" cy="20.37" rx="1.87508" ry="1.95321" fill="#3CDCB0"/>
<ellipse cx="34.1484" cy="20.37" rx="1.40545" ry="1.46401" fill="#3CDCB0"/>
<ellipse cx="27.6926" cy="20.37" rx="1.05466" ry="1.09861" fill="#3CDCB0"/>
<ellipse cx="43.9138" cy="36.5682" rx="2.5" ry="2.60417" fill="#3CDCB0"/>
<ellipse cx="35.543" cy="36.5681" rx="1.87508" ry="1.95321" fill="#3CDCB0"/>
<ellipse cx="28.2667" cy="36.5681" rx="1.40545" ry="1.46401" fill="#3CDCB0"/>
<ellipse cx="21.8109" cy="36.5681" rx="1.05466" ry="1.09861" fill="#3CDCB0"/>
<ellipse cx="43.9138" cy="14.9801" rx="2.5" ry="2.60417" fill="#3CDCB0"/>
<ellipse cx="35.543" cy="14.9801" rx="1.87508" ry="1.95321" fill="#3CDCB0"/>
<ellipse cx="28.2667" cy="14.9801" rx="1.40545" ry="1.46401" fill="#3CDCB0"/>
<ellipse cx="21.8109" cy="14.9801" rx="1.05466" ry="1.09861" fill="#3CDCB0"/>
<ellipse cx="38.0214" cy="41.3659" rx="2.5" ry="2.60417" fill="#3CDCB0"/>
<ellipse cx="29.6505" cy="41.3659" rx="1.87508" ry="1.95321" fill="#3CDCB0"/>
<ellipse cx="22.3743" cy="41.3659" rx="1.40545" ry="1.46401" fill="#3CDCB0"/>
<ellipse cx="15.9184" cy="41.3659" rx="1.05466" ry="1.09861" fill="#3CDCB0"/>
<ellipse cx="38.0214" cy="9.92167" rx="2.5" ry="2.60417" fill="#3CDCB0"/>
<ellipse cx="29.6505" cy="9.92166" rx="1.87508" ry="1.95321" fill="#3CDCB0"/>
<ellipse cx="22.3743" cy="9.92165" rx="1.40545" ry="1.46401" fill="#3CDCB0"/>
<ellipse cx="15.9184" cy="9.92161" rx="1.05466" ry="1.09861" fill="#3CDCB0"/>
<path d="M66.239 27.1438V11.8711H71.3995C72.5976 11.8711 73.577 12.0873 74.3377 12.5199C75.1033 12.9474 75.6701 13.5266 76.038 14.2574C76.4059 14.9883 76.5898 15.8036 76.5898 16.7035C76.5898 17.6033 76.4059 18.4211 76.038 19.1569C75.675 19.8927 75.1132 20.4794 74.3526 20.9169C73.5919 21.3494 72.6175 21.5657 71.4293 21.5657H67.7304V19.925H71.3696C72.19 19.925 72.8487 19.7834 73.3458 19.5C73.843 19.2166 74.2034 18.8338 74.4272 18.3515C74.6559 17.8643 74.7702 17.315 74.7702 16.7035C74.7702 16.092 74.6559 15.5451 74.4272 15.0628C74.2034 14.5806 73.8405 14.2027 73.3384 13.9293C72.8363 13.6509 72.1701 13.5117 71.3398 13.5117H68.0884V27.1438H66.239ZM92.4554 19.5074C92.4554 21.1182 92.1646 22.5103 91.5829 23.6836C91.0012 24.8569 90.2033 25.7617 89.1891 26.3981C88.1749 27.0344 87.0165 27.3526 85.7139 27.3526C84.4114 27.3526 83.253 27.0344 82.2388 26.3981C81.2246 25.7617 80.4266 24.8569 79.845 23.6836C79.2633 22.5103 78.9724 21.1182 78.9724 19.5074C78.9724 17.8966 79.2633 16.5046 79.845 15.3313C80.4266 14.158 81.2246 13.2532 82.2388 12.6168C83.253 11.9804 84.4114 11.6623 85.7139 11.6623C87.0165 11.6623 88.1749 11.9804 89.1891 12.6168C90.2033 13.2532 91.0012 14.158 91.5829 15.3313C92.1646 16.5046 92.4554 17.8966 92.4554 19.5074ZM90.6656 19.5074C90.6656 18.185 90.4444 17.0689 90.0019 16.1591C89.5644 15.2493 88.9703 14.5607 88.2196 14.0934C87.4739 13.626 86.6386 13.3924 85.7139 13.3924C84.7892 13.3924 83.9515 13.626 83.2008 14.0934C82.455 14.5607 81.8609 15.2493 81.4185 16.1591C80.981 17.0689 80.7622 18.185 80.7622 19.5074C80.7622 20.8299 80.981 21.946 81.4185 22.8558C81.8609 23.7656 82.455 24.4542 83.2008 24.9215C83.9515 25.3888 84.7892 25.6225 85.7139 25.6225C86.6386 25.6225 87.4739 25.3888 88.2196 24.9215C88.9703 24.4542 89.5644 23.7656 90.0019 22.8558C90.4444 21.946 90.6656 20.8299 90.6656 19.5074ZM95.5651 27.1438V11.8711H100.726C101.919 11.8711 102.898 12.0749 103.664 12.4826C104.429 12.8853 104.996 13.4396 105.364 14.1456C105.732 14.8515 105.916 15.6545 105.916 16.5543C105.916 17.4542 105.732 18.2521 105.364 18.9481C104.996 19.6442 104.432 20.191 103.671 20.5888C102.911 20.9815 101.939 21.1779 100.755 21.1779H96.5793V19.5074H100.696C101.511 19.5074 102.167 19.3881 102.665 19.1495C103.167 18.9108 103.53 18.5728 103.753 18.1353C103.982 17.6928 104.096 17.1658 104.096 16.5543C104.096 15.9428 103.982 15.4084 103.753 14.951C103.525 14.4936 103.159 14.1406 102.657 13.892C102.155 13.6385 101.491 13.5117 100.666 13.5117H97.4146V27.1438H95.5651ZM102.754 20.283L106.513 27.1438H104.365L100.666 20.283H102.754ZM108.163 13.5117V11.8711H119.617V13.5117H114.815V27.1438H112.965V13.5117H108.163ZM124.321 11.8711V27.1438H122.471V11.8711H124.321ZM128.029 27.1438V11.8711H137.187V13.5117H129.878V18.6722H136.501V20.3128H129.878V27.1438H128.029ZM153.241 19.5074C153.241 21.1182 152.95 22.5103 152.368 23.6836C151.786 24.8569 150.988 25.7617 149.974 26.3981C148.96 27.0344 147.802 27.3526 146.499 27.3526C145.197 27.3526 144.038 27.0344 143.024 26.3981C142.01 25.7617 141.212 24.8569 140.63 23.6836C140.048 22.5103 139.758 21.1182 139.758 19.5074C139.758 17.8966 140.048 16.5046 140.63 15.3313C141.212 14.158 142.01 13.2532 143.024 12.6168C144.038 11.9804 145.197 11.6623 146.499 11.6623C147.802 11.6623 148.96 11.9804 149.974 12.6168C150.988 13.2532 151.786 14.158 152.368 15.3313C152.95 16.5046 153.241 17.8966 153.241 19.5074ZM151.451 19.5074C151.451 18.185 151.23 17.0689 150.787 16.1591C150.35 15.2493 149.755 14.5607 149.005 14.0934C148.259 13.626 147.424 13.3924 146.499 13.3924C145.574 13.3924 144.737 13.626 143.986 14.0934C143.24 14.5607 142.646 15.2493 142.204 16.1591C141.766 17.0689 141.547 18.185 141.547 19.5074C141.547 20.8299 141.766 21.946 142.204 22.8558C142.646 23.7656 143.24 24.4542 143.986 24.9215C144.737 25.3888 145.574 25.6225 146.499 25.6225C147.424 25.6225 148.259 25.3888 149.005 24.9215C149.755 24.4542 150.35 23.7656 150.787 22.8558C151.23 21.946 151.451 20.8299 151.451 19.5074ZM156.35 27.1438V11.8711H158.2V25.5032H165.299V27.1438H156.35ZM170.012 11.8711V27.1438H168.163V11.8711H170.012ZM186.607 19.5074C186.607 21.1182 186.316 22.5103 185.734 23.6836C185.153 24.8569 184.355 25.7617 183.34 26.3981C182.326 27.0344 181.168 27.3526 179.865 27.3526C178.563 27.3526 177.404 27.0344 176.39 26.3981C175.376 25.7617 174.578 24.8569 173.996 23.6836C173.415 22.5103 173.124 21.1182 173.124 19.5074C173.124 17.8966 173.415 16.5046 173.996 15.3313C174.578 14.158 175.376 13.2532 176.39 12.6168C177.404 11.9804 178.563 11.6623 179.865 11.6623C181.168 11.6623 182.326 11.9804 183.34 12.6168C184.355 13.2532 185.153 14.158 185.734 15.3313C186.316 16.5046 186.607 17.8966 186.607 19.5074ZM184.817 19.5074C184.817 18.185 184.596 17.0689 184.153 16.1591C183.716 15.2493 183.122 14.5607 182.371 14.0934C181.625 13.626 180.79 13.3924 179.865 13.3924C178.941 13.3924 178.103 13.626 177.352 14.0934C176.606 14.5607 176.012 15.2493 175.57 16.1591C175.132 17.0689 174.914 18.185 174.914 19.5074C174.914 20.8299 175.132 21.946 175.57 22.8558C176.012 23.7656 176.606 24.4542 177.352 24.9215C178.103 25.3888 178.941 25.6225 179.865 25.6225C180.79 25.6225 181.625 25.3888 182.371 24.9215C183.122 24.4542 183.716 23.7656 184.153 22.8558C184.596 21.946 184.817 20.8299 184.817 19.5074ZM65.0657 32.0557V30.962H72.702V32.0557H69.5003V41.1438H68.2674V32.0557H65.0657ZM74.6049 41.1438V30.962H78.0452C78.8407 30.962 79.4936 31.0979 80.0041 31.3697C80.5145 31.6381 80.8923 32.0077 81.1376 32.4783C81.3828 32.949 81.5055 33.4842 81.5055 34.0841C81.5055 34.684 81.3828 35.216 81.1376 35.68C80.8923 36.144 80.5161 36.5086 80.009 36.7738C79.5019 37.0356 78.854 37.1665 78.0651 37.1665H75.281V36.0529H78.0254C78.5689 36.0529 79.0064 35.9733 79.3379 35.8143C79.6726 35.6552 79.9146 35.4298 80.0637 35.1381C80.2162 34.8431 80.2924 34.4918 80.2924 34.0841C80.2924 33.6765 80.2162 33.3202 80.0637 33.0152C79.9112 32.7103 79.6676 32.475 79.3329 32.3093C78.9981 32.1402 78.5557 32.0557 78.0055 32.0557H75.8379V41.1438H74.6049ZM79.3975 36.5699L81.9032 41.1438H80.4714L78.0055 36.5699H79.3975ZM83.9776 41.1438H82.685L86.4236 30.962H87.6963L91.435 41.1438H90.1424L87.0998 32.5728H87.0202L83.9776 41.1438ZM84.4549 37.1665H89.6651V38.2603H84.4549V37.1665ZM100.736 34.1438H99.5026C99.4297 33.7892 99.3021 33.4776 99.1198 33.2091C98.9408 32.9407 98.7221 32.7153 98.4636 32.533C98.2084 32.3474 97.925 32.2082 97.6134 32.1154C97.3019 32.0226 96.9771 31.9762 96.639 31.9762C96.0225 31.9762 95.464 32.132 94.9636 32.4435C94.4664 32.7551 94.0703 33.2141 93.7754 33.8206C93.4837 34.4272 93.3379 35.1713 93.3379 36.0529C93.3379 36.9345 93.4837 37.6786 93.7754 38.2851C94.0703 38.8917 94.4664 39.3507 94.9636 39.6623C95.464 39.9738 96.0225 40.1296 96.639 40.1296C96.9771 40.1296 97.3019 40.0832 97.6134 39.9904C97.925 39.8976 98.2084 39.76 98.4636 39.5777C98.7221 39.3921 98.9408 39.1651 99.1198 38.8966C99.3021 38.6249 99.4297 38.3133 99.5026 37.962H100.736C100.643 38.4823 100.474 38.948 100.228 39.359C99.9832 39.77 99.6783 40.1197 99.3137 40.408C98.9491 40.693 98.5398 40.9101 98.0857 41.0593C97.635 41.2084 97.1527 41.283 96.639 41.283C95.7706 41.283 94.9984 41.0709 94.3222 40.6466C93.6461 40.2224 93.1141 39.6192 92.7264 38.837C92.3386 38.0548 92.1447 37.1268 92.1447 36.0529C92.1447 34.979 92.3386 34.051 92.7264 33.2688C93.1141 32.4866 93.6461 31.8834 94.3222 31.4591C94.9984 31.0349 95.7706 30.8228 96.639 30.8228C97.1527 30.8228 97.635 30.8973 98.0857 31.0465C98.5398 31.1956 98.9491 31.4144 99.3137 31.7027C99.6783 31.9878 99.9832 32.3358 100.228 32.7468C100.474 33.1545 100.643 33.6201 100.736 34.1438ZM102.728 41.1438V30.962H103.961V36.0131H104.08L108.654 30.962H110.265L105.989 35.5557L110.265 41.1438H108.773L105.234 36.4108L103.961 37.8427V41.1438H102.728Z" fill="#3CDCB0"/>
</svg>
