<svg width="201" height="51" viewBox="0 0 201 51" fill="none" xmlns="http://www.w3.org/2000/svg">
<rect x="0.348022" y="0.511536" width="200" height="50" fill="white"/>
<ellipse cx="55.0175" cy="25.6419" rx="2.5" ry="2.60417" fill="#3CDCB0"/>
<ellipse cx="46.6466" cy="25.6419" rx="1.87508" ry="1.95321" fill="#3CDCB0"/>
<ellipse cx="39.3704" cy="25.6419" rx="1.40545" ry="1.46401" fill="#3CDCB0"/>
<ellipse cx="32.9145" cy="25.6419" rx="1.05466" ry="1.09861" fill="#3CDCB0"/>
<ellipse cx="49.7955" cy="31.0461" rx="2.5" ry="2.60417" fill="#3CDCB0"/>
<ellipse cx="41.4246" cy="31.046" rx="1.87508" ry="1.95321" fill="#3CDCB0"/>
<ellipse cx="34.1484" cy="31.046" rx="1.40545" ry="1.46401" fill="#3CDCB0"/>
<ellipse cx="27.6925" cy="31.0461" rx="1.05466" ry="1.09861" fill="#3CDCB0"/>
<ellipse cx="49.7955" cy="20.2378" rx="2.5" ry="2.60417" fill="#3CDCB0"/>
<ellipse cx="41.4246" cy="20.2378" rx="1.87508" ry="1.95321" fill="#3CDCB0"/>
<ellipse cx="34.1484" cy="20.2378" rx="1.40545" ry="1.46401" fill="#3CDCB0"/>
<ellipse cx="27.6925" cy="20.2378" rx="1.05466" ry="1.09861" fill="#3CDCB0"/>
<ellipse cx="43.9138" cy="36.436" rx="2.5" ry="2.60417" fill="#3CDCB0"/>
<ellipse cx="35.543" cy="36.4359" rx="1.87508" ry="1.95321" fill="#3CDCB0"/>
<ellipse cx="28.2667" cy="36.4359" rx="1.40545" ry="1.46401" fill="#3CDCB0"/>
<ellipse cx="21.8109" cy="36.4359" rx="1.05466" ry="1.09861" fill="#3CDCB0"/>
<ellipse cx="43.9138" cy="14.8479" rx="2.5" ry="2.60417" fill="#3CDCB0"/>
<ellipse cx="35.543" cy="14.8479" rx="1.87508" ry="1.95321" fill="#3CDCB0"/>
<ellipse cx="28.2667" cy="14.8479" rx="1.40545" ry="1.46401" fill="#3CDCB0"/>
<ellipse cx="21.8109" cy="14.8479" rx="1.05466" ry="1.09861" fill="#3CDCB0"/>
<ellipse cx="38.0214" cy="41.2337" rx="2.5" ry="2.60417" fill="#3CDCB0"/>
<ellipse cx="29.6505" cy="41.2337" rx="1.87508" ry="1.95321" fill="#3CDCB0"/>
<ellipse cx="22.3743" cy="41.2337" rx="1.40545" ry="1.46401" fill="#3CDCB0"/>
<ellipse cx="15.9184" cy="41.2337" rx="1.05466" ry="1.09861" fill="#3CDCB0"/>
<ellipse cx="38.0214" cy="9.78941" rx="2.5" ry="2.60417" fill="#3CDCB0"/>
<ellipse cx="29.6505" cy="9.78939" rx="1.87508" ry="1.95321" fill="#3CDCB0"/>
<ellipse cx="22.3743" cy="9.78939" rx="1.40545" ry="1.46401" fill="#3CDCB0"/>
<ellipse cx="15.9184" cy="9.7894" rx="1.05466" ry="1.09861" fill="#3CDCB0"/>
<path d="M66.4967 26.0115V10.7388H71.6572C72.8554 10.7388 73.8348 10.9551 74.5954 11.3876C75.3611 11.8152 75.9278 12.3943 76.2957 13.1252C76.6636 13.856 76.8476 14.6713 76.8476 15.5712C76.8476 16.4711 76.6636 17.2889 76.2957 18.0247C75.9328 18.7605 75.371 19.3471 74.6103 19.7846C73.8497 20.2171 72.8753 20.4334 71.6871 20.4334H67.9882V18.7928H71.6274C72.4477 18.7928 73.1064 18.6511 73.6036 18.3677C74.1008 18.0843 74.4612 17.7015 74.6849 17.2193C74.9136 16.7321 75.028 16.1827 75.028 15.5712C75.028 14.9597 74.9136 14.4128 74.6849 13.9306C74.4612 13.4483 74.0983 13.0705 73.5961 12.797C73.094 12.5186 72.4278 12.3794 71.5976 12.3794H68.3461V26.0115H66.4967ZM92.7132 18.3752C92.7132 19.986 92.4223 21.378 91.8406 22.5513C91.259 23.7246 90.461 24.6294 89.4468 25.2658C88.4326 25.9022 87.2742 26.2203 85.9717 26.2203C84.6691 26.2203 83.5107 25.9022 82.4965 25.2658C81.4823 24.6294 80.6844 23.7246 80.1027 22.5513C79.521 21.378 79.2302 19.986 79.2302 18.3752C79.2302 16.7644 79.521 15.3723 80.1027 14.199C80.6844 13.0257 81.4823 12.1209 82.4965 11.4845C83.5107 10.8482 84.6691 10.53 85.9717 10.53C87.2742 10.53 88.4326 10.8482 89.4468 11.4845C90.461 12.1209 91.259 13.0257 91.8406 14.199C92.4223 15.3723 92.7132 16.7644 92.7132 18.3752ZM90.9234 18.3752C90.9234 17.0527 90.7021 15.9366 90.2597 15.0268C89.8222 14.117 89.2281 13.4284 88.4774 12.9611C87.7316 12.4938 86.8964 12.2601 85.9717 12.2601C85.047 12.2601 84.2092 12.4938 83.4585 12.9611C82.7128 13.4284 82.1187 14.117 81.6762 15.0268C81.2387 15.9366 81.02 17.0527 81.02 18.3752C81.02 19.6976 81.2387 20.8137 81.6762 21.7235C82.1187 22.6333 82.7128 23.3219 83.4585 23.7892C84.2092 24.2566 85.047 24.4902 85.9717 24.4902C86.8964 24.4902 87.7316 24.2566 88.4774 23.7892C89.2281 23.3219 89.8222 22.6333 90.2597 21.7235C90.7021 20.8137 90.9234 19.6976 90.9234 18.3752ZM95.8229 26.0115V10.7388H100.983C102.177 10.7388 103.156 10.9426 103.922 11.3503C104.687 11.753 105.254 12.3073 105.622 13.0133C105.99 13.7193 106.174 14.5222 106.174 15.422C106.174 16.3219 105.99 17.1198 105.622 17.8159C105.254 18.5119 104.69 19.0588 103.929 19.4565C103.168 19.8492 102.196 20.0456 101.013 20.0456H96.8371V18.3752H100.954C101.769 18.3752 102.425 18.2559 102.922 18.0172C103.424 17.7786 103.787 17.4405 104.011 17.003C104.24 16.5605 104.354 16.0336 104.354 15.422C104.354 14.8105 104.24 14.2761 104.011 13.8187C103.782 13.3613 103.417 13.0083 102.915 12.7598C102.413 12.5062 101.749 12.3794 100.924 12.3794H97.6723V26.0115H95.8229ZM103.012 19.1507L106.77 26.0115H104.623L100.924 19.1507H103.012ZM108.42 12.3794V10.7388H119.875V12.3794H115.072V26.0115H113.223V12.3794H108.42ZM124.579 10.7388V26.0115H122.729V10.7388H124.579ZM128.287 26.0115V10.7388H137.444V12.3794H130.136V17.5399H136.758V19.1806H130.136V26.0115H128.287ZM153.498 18.3752C153.498 19.986 153.207 21.378 152.626 22.5513C152.044 23.7246 151.246 24.6294 150.232 25.2658C149.218 25.9022 148.059 26.2203 146.757 26.2203C145.454 26.2203 144.296 25.9022 143.282 25.2658C142.267 24.6294 141.47 23.7246 140.888 22.5513C140.306 21.378 140.015 19.986 140.015 18.3752C140.015 16.7644 140.306 15.3723 140.888 14.199C141.47 13.0257 142.267 12.1209 143.282 11.4845C144.296 10.8482 145.454 10.53 146.757 10.53C148.059 10.53 149.218 10.8482 150.232 11.4845C151.246 12.1209 152.044 13.0257 152.626 14.199C153.207 15.3723 153.498 16.7644 153.498 18.3752ZM151.709 18.3752C151.709 17.0527 151.487 15.9366 151.045 15.0268C150.607 14.117 150.013 13.4284 149.263 12.9611C148.517 12.4938 147.682 12.2601 146.757 12.2601C145.832 12.2601 144.994 12.4938 144.244 12.9611C143.498 13.4284 142.904 14.117 142.461 15.0268C142.024 15.9366 141.805 17.0527 141.805 18.3752C141.805 19.6976 142.024 20.8137 142.461 21.7235C142.904 22.6333 143.498 23.3219 144.244 23.7892C144.994 24.2566 145.832 24.4902 146.757 24.4902C147.682 24.4902 148.517 24.2566 149.263 23.7892C150.013 23.3219 150.607 22.6333 151.045 21.7235C151.487 20.8137 151.709 19.6976 151.709 18.3752ZM156.608 26.0115V10.7388H158.457V24.3709H165.557V26.0115H156.608ZM170.27 10.7388V26.0115H168.421V10.7388H170.27ZM186.865 18.3752C186.865 19.986 186.574 21.378 185.992 22.5513C185.41 23.7246 184.612 24.6294 183.598 25.2658C182.584 25.9022 181.426 26.2203 180.123 26.2203C178.82 26.2203 177.662 25.9022 176.648 25.2658C175.634 24.6294 174.836 23.7246 174.254 22.5513C173.672 21.378 173.382 19.986 173.382 18.3752C173.382 16.7644 173.672 15.3723 174.254 14.199C174.836 13.0257 175.634 12.1209 176.648 11.4845C177.662 10.8482 178.82 10.53 180.123 10.53C181.426 10.53 182.584 10.8482 183.598 11.4845C184.612 12.1209 185.41 13.0257 185.992 14.199C186.574 15.3723 186.865 16.7644 186.865 18.3752ZM185.075 18.3752C185.075 17.0527 184.854 15.9366 184.411 15.0268C183.974 14.117 183.379 13.4284 182.629 12.9611C181.883 12.4938 181.048 12.2601 180.123 12.2601C179.198 12.2601 178.361 12.4938 177.61 12.9611C176.864 13.4284 176.27 14.117 175.828 15.0268C175.39 15.9366 175.171 17.0527 175.171 18.3752C175.171 19.6976 175.39 20.8137 175.828 21.7235C176.27 22.6333 176.864 23.3219 177.61 23.7892C178.361 24.2566 179.198 24.4902 180.123 24.4902C181.048 24.4902 181.883 24.2566 182.629 23.7892C183.379 23.3219 183.974 22.6333 184.411 21.7235C184.854 20.8137 185.075 19.6976 185.075 18.3752ZM65.3234 30.9235V29.8297H72.9598V30.9235H69.7581V40.0115H68.5251V30.9235H65.3234ZM74.8627 40.0115V29.8297H78.303C79.0984 29.8297 79.7514 29.9656 80.2618 30.2374C80.7722 30.5059 81.1501 30.8754 81.3953 31.3461C81.6406 31.8167 81.7632 32.352 81.7632 32.9519C81.7632 33.5518 81.6406 34.0837 81.3953 34.5478C81.1501 35.0118 80.7739 35.3764 80.2668 35.6415C79.7597 35.9033 79.1117 36.0343 78.3229 36.0343H75.5388V34.9206H78.2831C78.8267 34.9206 79.2642 34.8411 79.5956 34.682C79.9304 34.5229 80.1723 34.2975 80.3215 34.0059C80.4739 33.7109 80.5502 33.3595 80.5502 32.9519C80.5502 32.5442 80.4739 32.1879 80.3215 31.883C80.169 31.5781 79.9254 31.3427 79.5906 31.177C79.2559 31.008 78.8134 30.9235 78.2632 30.9235H76.0956V40.0115H74.8627ZM79.6553 35.4377L82.1609 40.0115H80.7291L78.2632 35.4377H79.6553ZM84.2353 40.0115H82.9427L86.6814 29.8297H87.9541L91.6927 40.0115H90.4001L87.3575 31.4405H87.278L84.2353 40.0115ZM84.7126 36.0343H89.9228V37.128H84.7126V36.0343ZM100.993 33.0115H99.7604C99.6875 32.6569 99.5599 32.3453 99.3776 32.0769C99.1986 31.8084 98.9798 31.583 98.7213 31.4007C98.4661 31.2151 98.1827 31.0759 97.8712 30.9831C97.5596 30.8903 97.2348 30.8439 96.8967 30.8439C96.2803 30.8439 95.7218 30.9997 95.2213 31.3113C94.7242 31.6228 94.3281 32.0818 94.0331 32.6884C93.7414 33.2949 93.5956 34.039 93.5956 34.9206C93.5956 35.8023 93.7414 36.5463 94.0331 37.1529C94.3281 37.7594 94.7242 38.2184 95.2213 38.53C95.7218 38.8416 96.2803 38.9973 96.8967 38.9973C97.2348 38.9973 97.5596 38.9509 97.8712 38.8581C98.1827 38.7653 98.4661 38.6278 98.7213 38.4455C98.9798 38.2599 99.1986 38.0328 99.3776 37.7644C99.5599 37.4926 99.6875 37.181 99.7604 36.8297H100.993C100.901 37.3501 100.731 37.8157 100.486 38.2267C100.241 38.6377 99.936 38.9874 99.5715 39.2757C99.2069 39.5608 98.7976 39.7779 98.3435 39.927C97.8927 40.0762 97.4105 40.1507 96.8967 40.1507C96.0284 40.1507 95.2561 39.9386 94.58 39.5144C93.9038 39.0901 93.3719 38.4869 92.9841 37.7047C92.5963 36.9225 92.4024 35.9945 92.4024 34.9206C92.4024 33.8468 92.5963 32.9187 92.9841 32.1365C93.3719 31.3543 93.9038 30.7511 94.58 30.3269C95.2561 29.9026 96.0284 29.6905 96.8967 29.6905C97.4105 29.6905 97.8927 29.7651 98.3435 29.9142C98.7976 30.0634 99.2069 30.2821 99.5715 30.5705C99.936 30.8555 100.241 31.2035 100.486 31.6145C100.731 32.0222 100.901 32.4879 100.993 33.0115ZM102.986 40.0115V29.8297H104.219V34.8809H104.338L108.912 29.8297H110.523L106.247 34.4235L110.523 40.0115H109.031L105.491 35.2786L104.219 36.7104V40.0115H102.986Z" fill="#3CDCB0"/>
</svg>
