<svg width="201" height="51" viewBox="0 0 201 51" fill="none" xmlns="http://www.w3.org/2000/svg">
<rect x="0.348022" y="0.0775146" width="200" height="50" fill="#3CDCB0"/>
<ellipse cx="55.0175" cy="25.2079" rx="2.5" ry="2.60417" fill="#11111F"/>
<ellipse cx="46.6466" cy="25.2079" rx="1.87508" ry="1.95321" fill="#11111F"/>
<ellipse cx="39.3704" cy="25.2078" rx="1.40545" ry="1.46401" fill="#11111F"/>
<ellipse cx="32.9145" cy="25.2079" rx="1.05466" ry="1.09861" fill="#11111F"/>
<ellipse cx="49.7955" cy="30.612" rx="2.5" ry="2.60417" fill="#11111F"/>
<ellipse cx="41.4246" cy="30.612" rx="1.87508" ry="1.95321" fill="#11111F"/>
<ellipse cx="34.1484" cy="30.612" rx="1.40545" ry="1.46401" fill="#11111F"/>
<ellipse cx="27.6925" cy="30.612" rx="1.05466" ry="1.09861" fill="#11111F"/>
<ellipse cx="49.7955" cy="19.8038" rx="2.5" ry="2.60417" fill="#11111F"/>
<ellipse cx="41.4246" cy="19.8037" rx="1.87508" ry="1.95321" fill="#11111F"/>
<ellipse cx="34.1484" cy="19.8037" rx="1.40545" ry="1.46401" fill="#11111F"/>
<ellipse cx="27.6925" cy="19.8037" rx="1.05466" ry="1.09861" fill="#11111F"/>
<ellipse cx="43.9138" cy="36.0019" rx="2.5" ry="2.60417" fill="#11111F"/>
<ellipse cx="35.543" cy="36.0019" rx="1.87508" ry="1.95321" fill="#11111F"/>
<ellipse cx="28.2667" cy="36.0019" rx="1.40545" ry="1.46401" fill="#11111F"/>
<ellipse cx="21.8109" cy="36.0019" rx="1.05466" ry="1.09861" fill="#11111F"/>
<ellipse cx="43.9138" cy="14.4138" rx="2.5" ry="2.60417" fill="#11111F"/>
<ellipse cx="35.543" cy="14.4138" rx="1.87508" ry="1.95321" fill="#11111F"/>
<ellipse cx="28.2667" cy="14.4138" rx="1.40545" ry="1.46401" fill="#11111F"/>
<ellipse cx="21.8109" cy="14.4138" rx="1.05466" ry="1.09861" fill="#11111F"/>
<ellipse cx="38.0214" cy="40.7997" rx="2.5" ry="2.60417" fill="#11111F"/>
<ellipse cx="29.6505" cy="40.7996" rx="1.87508" ry="1.95321" fill="#11111F"/>
<ellipse cx="22.3743" cy="40.7996" rx="1.40545" ry="1.46401" fill="#11111F"/>
<ellipse cx="15.9184" cy="40.7997" rx="1.05466" ry="1.09861" fill="#11111F"/>
<ellipse cx="38.0214" cy="9.35539" rx="2.5" ry="2.60417" fill="#11111F"/>
<ellipse cx="29.6505" cy="9.35537" rx="1.87508" ry="1.95321" fill="#11111F"/>
<ellipse cx="22.3743" cy="9.35537" rx="1.40545" ry="1.46401" fill="#11111F"/>
<ellipse cx="15.9184" cy="9.35538" rx="1.05466" ry="1.09861" fill="#11111F"/>
<path d="M66.6661 25.5775V10.3048H71.8267C73.0248 10.3048 74.0042 10.5211 74.7649 10.9536C75.5305 11.3811 76.0973 11.9603 76.4651 12.6912C76.833 13.422 77.017 14.2373 77.017 15.1372C77.017 16.037 76.833 16.8549 76.4651 17.5907C76.1022 18.3264 75.5404 18.9131 74.7798 19.3506C74.0191 19.7831 73.0447 19.9994 71.8565 19.9994H68.1576V18.3588H71.7968C72.6171 18.3588 73.2759 18.2171 73.773 17.9337C74.2702 17.6503 74.6306 17.2675 74.8544 16.7853C75.083 16.298 75.1974 15.7487 75.1974 15.1372C75.1974 14.5257 75.083 13.9788 74.8544 13.4965C74.6306 13.0143 74.2677 12.6365 73.7656 12.363C73.2634 12.0846 72.5973 11.9454 71.767 11.9454H68.5156V25.5775H66.6661ZM92.8826 17.9412C92.8826 19.5519 92.5917 20.944 92.0101 22.1173C91.4284 23.2906 90.6305 24.1954 89.6163 24.8318C88.602 25.4681 87.4437 25.7863 86.1411 25.7863C84.8386 25.7863 83.6802 25.4681 82.666 24.8318C81.6518 24.1954 80.8538 23.2906 80.2721 22.1173C79.6905 20.944 79.3996 19.5519 79.3996 17.9412C79.3996 16.3304 79.6905 14.9383 80.2721 13.765C80.8538 12.5917 81.6518 11.6869 82.666 11.0505C83.6802 10.4142 84.8386 10.096 86.1411 10.096C87.4437 10.096 88.602 10.4142 89.6163 11.0505C90.6305 11.6869 91.4284 12.5917 92.0101 13.765C92.5917 14.9383 92.8826 16.3304 92.8826 17.9412ZM91.0928 17.9412C91.0928 16.6187 90.8716 15.5026 90.4291 14.5928C89.9916 13.683 89.3975 12.9944 88.6468 12.5271C87.9011 12.0598 87.0658 11.8261 86.1411 11.8261C85.2164 11.8261 84.3787 12.0598 83.628 12.5271C82.8822 12.9944 82.2881 13.683 81.8457 14.5928C81.4082 15.5026 81.1894 16.6187 81.1894 17.9412C81.1894 19.2636 81.4082 20.3797 81.8457 21.2895C82.2881 22.1993 82.8822 22.8879 83.628 23.3552C84.3787 23.8225 85.2164 24.0562 86.1411 24.0562C87.0658 24.0562 87.9011 23.8225 88.6468 23.3552C89.3975 22.8879 89.9916 22.1993 90.4291 21.2895C90.8716 20.3797 91.0928 19.2636 91.0928 17.9412ZM95.9923 25.5775V10.3048H101.153C102.346 10.3048 103.325 10.5086 104.091 10.9163C104.857 11.319 105.423 11.8733 105.791 12.5793C106.159 13.2853 106.343 14.0882 106.343 14.988C106.343 15.8879 106.159 16.6858 105.791 17.3818C105.423 18.0779 104.859 18.6247 104.098 19.0225C103.338 19.4152 102.366 19.6116 101.183 19.6116H97.0065V17.9412H101.123C101.938 17.9412 102.595 17.8218 103.092 17.5832C103.594 17.3446 103.957 17.0065 104.181 16.569C104.409 16.1265 104.524 15.5995 104.524 14.988C104.524 14.3765 104.409 13.8421 104.181 13.3847C103.952 12.9273 103.586 12.5743 103.084 12.3257C102.582 12.0722 101.918 11.9454 101.093 11.9454H97.8417V25.5775H95.9923ZM103.181 18.7167L106.94 25.5775H104.792L101.093 18.7167H103.181ZM108.59 11.9454V10.3048H120.044V11.9454H115.242V25.5775H113.392V11.9454H108.59ZM124.748 10.3048V25.5775H122.899V10.3048H124.748ZM128.456 25.5775V10.3048H137.614V11.9454H130.306V17.1059H136.928V18.7465H130.306V25.5775H128.456ZM153.668 17.9412C153.668 19.5519 153.377 20.944 152.795 22.1173C152.214 23.2906 151.416 24.1954 150.401 24.8318C149.387 25.4681 148.229 25.7863 146.926 25.7863C145.624 25.7863 144.465 25.4681 143.451 24.8318C142.437 24.1954 141.639 23.2906 141.057 22.1173C140.476 20.944 140.185 19.5519 140.185 17.9412C140.185 16.3304 140.476 14.9383 141.057 13.765C141.639 12.5917 142.437 11.6869 143.451 11.0505C144.465 10.4142 145.624 10.096 146.926 10.096C148.229 10.096 149.387 10.4142 150.401 11.0505C151.416 11.6869 152.214 12.5917 152.795 13.765C153.377 14.9383 153.668 16.3304 153.668 17.9412ZM151.878 17.9412C151.878 16.6187 151.657 15.5026 151.214 14.5928C150.777 13.683 150.183 12.9944 149.432 12.5271C148.686 12.0598 147.851 11.8261 146.926 11.8261C146.002 11.8261 145.164 12.0598 144.413 12.5271C143.667 12.9944 143.073 13.683 142.631 14.5928C142.193 15.5026 141.975 16.6187 141.975 17.9412C141.975 19.2636 142.193 20.3797 142.631 21.2895C143.073 22.1993 143.667 22.8879 144.413 23.3552C145.164 23.8225 146.002 24.0562 146.926 24.0562C147.851 24.0562 148.686 23.8225 149.432 23.3552C150.183 22.8879 150.777 22.1993 151.214 21.2895C151.657 20.3797 151.878 19.2636 151.878 17.9412ZM156.777 25.5775V10.3048H158.627V23.9369H165.726V25.5775H156.777ZM170.439 10.3048V25.5775H168.59V10.3048H170.439ZM187.034 17.9412C187.034 19.5519 186.743 20.944 186.161 22.1173C185.58 23.2906 184.782 24.1954 183.768 24.8318C182.753 25.4681 181.595 25.7863 180.292 25.7863C178.99 25.7863 177.832 25.4681 176.817 24.8318C175.803 24.1954 175.005 23.2906 174.424 22.1173C173.842 20.944 173.551 19.5519 173.551 17.9412C173.551 16.3304 173.842 14.9383 174.424 13.765C175.005 12.5917 175.803 11.6869 176.817 11.0505C177.832 10.4142 178.99 10.096 180.292 10.096C181.595 10.096 182.753 10.4142 183.768 11.0505C184.782 11.6869 185.58 12.5917 186.161 13.765C186.743 14.9383 187.034 16.3304 187.034 17.9412ZM185.244 17.9412C185.244 16.6187 185.023 15.5026 184.58 14.5928C184.143 13.683 183.549 12.9944 182.798 12.5271C182.052 12.0598 181.217 11.8261 180.292 11.8261C179.368 11.8261 178.53 12.0598 177.779 12.5271C177.034 12.9944 176.439 13.683 175.997 14.5928C175.56 15.5026 175.341 16.6187 175.341 17.9412C175.341 19.2636 175.56 20.3797 175.997 21.2895C176.439 22.1993 177.034 22.8879 177.779 23.3552C178.53 23.8225 179.368 24.0562 180.292 24.0562C181.217 24.0562 182.052 23.8225 182.798 23.3552C183.549 22.8879 184.143 22.1993 184.58 21.2895C185.023 20.3797 185.244 19.2636 185.244 17.9412ZM65.4928 30.4894V29.3957H73.1292V30.4894H69.9275V39.5775H68.6946V30.4894H65.4928ZM75.0321 39.5775V29.3957H78.4724C79.2679 29.3957 79.9208 29.5316 80.4312 29.8034C80.9417 30.0718 81.3195 30.4414 81.5648 30.912C81.81 31.3827 81.9327 31.918 81.9327 32.5179C81.9327 33.1178 81.81 33.6497 81.5648 34.1137C81.3195 34.5778 80.9433 34.9423 80.4362 35.2075C79.9291 35.4693 79.2811 35.6002 78.4923 35.6002H75.7082V34.4866H78.4525C78.9961 34.4866 79.4336 34.4071 79.765 34.248C80.0998 34.0889 80.3417 33.8635 80.4909 33.5718C80.6434 33.2769 80.7196 32.9255 80.7196 32.5179C80.7196 32.1102 80.6434 31.7539 80.4909 31.449C80.3384 31.144 80.0948 30.9087 79.7601 30.743C79.4253 30.574 78.9828 30.4894 78.4327 30.4894H76.265V39.5775H75.0321ZM79.8247 35.0037L82.3304 39.5775H80.8986L78.4327 35.0037H79.8247ZM84.4048 39.5775H83.1122L86.8508 29.3957H88.1235L91.8622 39.5775H90.5696L87.5269 31.0065H87.4474L84.4048 39.5775ZM84.8821 35.6002H90.0923V36.694H84.8821V35.6002ZM101.163 32.5775H99.9298C99.8569 32.2229 99.7293 31.9113 99.547 31.6429C99.368 31.3744 99.1493 31.149 98.8908 30.9667C98.6355 30.7811 98.3522 30.6419 98.0406 30.5491C97.7291 30.4563 97.4042 30.4099 97.0662 30.4099C96.4497 30.4099 95.8912 30.5657 95.3908 30.8772C94.8936 31.1888 94.4975 31.6478 94.2025 32.2544C93.9109 32.8609 93.765 33.605 93.765 34.4866C93.765 35.3682 93.9109 36.1123 94.2025 36.7188C94.4975 37.3254 94.8936 37.7844 95.3908 38.096C95.8912 38.4075 96.4497 38.5633 97.0662 38.5633C97.4042 38.5633 97.7291 38.5169 98.0406 38.4241C98.3522 38.3313 98.6355 38.1938 98.8908 38.0115C99.1493 37.8259 99.368 37.5988 99.547 37.3304C99.7293 37.0586 99.8569 36.747 99.9298 36.3957H101.163C101.07 36.9161 100.901 37.3817 100.656 37.7927C100.41 38.2037 100.105 38.5534 99.7409 38.8417C99.3763 39.1268 98.967 39.3438 98.5129 39.493C98.0622 39.6421 97.5799 39.7167 97.0662 39.7167C96.1978 39.7167 95.4256 39.5046 94.7494 39.0804C94.0733 38.6561 93.5413 38.0529 93.1535 37.2707C92.7658 36.4885 92.5719 35.5605 92.5719 34.4866C92.5719 33.4127 92.7658 32.4847 93.1535 31.7025C93.5413 30.9203 94.0733 30.3171 94.7494 29.8929C95.4256 29.4686 96.1978 29.2565 97.0662 29.2565C97.5799 29.2565 98.0622 29.3311 98.5129 29.4802C98.967 29.6294 99.3763 29.8481 99.7409 30.1365C100.105 30.4215 100.41 30.7695 100.656 31.1805C100.901 31.5882 101.07 32.0538 101.163 32.5775ZM103.155 39.5775V29.3957H104.388V34.4468H104.507L109.081 29.3957H110.692L106.416 33.9894L110.692 39.5775H109.201L105.661 34.8446L104.388 36.2764V39.5775H103.155Z" fill="#11111F"/>
</svg>
