<svg width="174" height="38" viewBox="0 0 174 38" fill="none" xmlns="http://www.w3.org/2000/svg">
<ellipse cx="40.3278" cy="19.3309" rx="2.5" ry="2.60417" fill="white"/>
<ellipse cx="31.9569" cy="19.3309" rx="1.87508" ry="1.95321" fill="white"/>
<ellipse cx="24.6807" cy="19.3308" rx="1.40545" ry="1.46401" fill="white"/>
<ellipse cx="18.2248" cy="19.3309" rx="1.05466" ry="1.09861" fill="white"/>
<ellipse cx="35.1058" cy="24.7349" rx="2.5" ry="2.60417" fill="white"/>
<ellipse cx="26.7349" cy="24.735" rx="1.87508" ry="1.95321" fill="white"/>
<ellipse cx="19.4587" cy="24.7349" rx="1.40545" ry="1.46401" fill="white"/>
<ellipse cx="13.0028" cy="24.735" rx="1.05466" ry="1.09861" fill="white"/>
<ellipse cx="35.1058" cy="13.9267" rx="2.5" ry="2.60417" fill="white"/>
<ellipse cx="26.7349" cy="13.9267" rx="1.87508" ry="1.95321" fill="white"/>
<ellipse cx="19.4587" cy="13.9267" rx="1.40545" ry="1.46401" fill="white"/>
<ellipse cx="13.0028" cy="13.9266" rx="1.05466" ry="1.09861" fill="white"/>
<ellipse cx="29.2242" cy="30.1249" rx="2.5" ry="2.60417" fill="white"/>
<ellipse cx="20.8533" cy="30.125" rx="1.87508" ry="1.95321" fill="white"/>
<ellipse cx="13.577" cy="30.1249" rx="1.40545" ry="1.46401" fill="white"/>
<ellipse cx="7.12119" cy="30.125" rx="1.05466" ry="1.09861" fill="white"/>
<ellipse cx="29.2242" cy="8.53678" rx="2.5" ry="2.60417" fill="white"/>
<ellipse cx="20.8533" cy="8.53683" rx="1.87508" ry="1.95321" fill="white"/>
<ellipse cx="13.577" cy="8.53676" rx="1.40545" ry="1.46401" fill="white"/>
<ellipse cx="7.12119" cy="8.53684" rx="1.05466" ry="1.09861" fill="white"/>
<ellipse cx="23.3317" cy="34.9226" rx="2.5" ry="2.60417" fill="white"/>
<ellipse cx="14.9608" cy="34.9226" rx="1.87508" ry="1.95321" fill="white"/>
<ellipse cx="7.68456" cy="34.9226" rx="1.40545" ry="1.46401" fill="white"/>
<ellipse cx="1.22874" cy="34.9226" rx="1.05466" ry="1.09861" fill="white"/>
<ellipse cx="23.3317" cy="3.47831" rx="2.5" ry="2.60417" fill="white"/>
<ellipse cx="14.9608" cy="3.47836" rx="1.87508" ry="1.95321" fill="white"/>
<ellipse cx="7.68456" cy="3.47829" rx="1.40545" ry="1.46401" fill="white"/>
<ellipse cx="1.22874" cy="3.47837" rx="1.05466" ry="1.09861" fill="white"/>
<path d="M51.807 19.7004V4.42771H56.9675C58.1657 4.42771 59.1451 4.64398 59.9057 5.0765C60.6714 5.50406 61.2381 6.08325 61.606 6.81408C61.9739 7.5449 62.1579 8.36024 62.1579 9.2601C62.1579 10.16 61.9739 10.9778 61.606 11.7136C61.2431 12.4494 60.6813 13.036 59.9206 13.4735C59.16 13.9061 58.1856 14.1223 56.9974 14.1223H53.2985V12.4817H56.9377C57.758 12.4817 58.4167 12.34 58.9139 12.0566C59.4111 11.7732 59.7715 11.3904 59.9952 10.9082C60.2239 10.421 60.3383 9.8716 60.3383 9.2601C60.3383 8.64859 60.2239 8.10172 59.9952 7.61947C59.7715 7.13723 59.4086 6.75939 58.9064 6.48595C58.4043 6.20754 57.7381 6.06834 56.9079 6.06834H53.6564V19.7004H51.807ZM78.0235 12.0641C78.0235 13.6749 77.7326 15.0669 77.1509 16.2402C76.5693 17.4135 75.7713 18.3183 74.7571 18.9547C73.7429 19.5911 72.5845 19.9092 71.282 19.9092C69.9794 19.9092 68.821 19.5911 67.8068 18.9547C66.7926 18.3183 65.9947 17.4135 65.413 16.2402C64.8313 15.0669 64.5405 13.6749 64.5405 12.0641C64.5405 10.4533 64.8313 9.06123 65.413 7.88794C65.9947 6.71464 66.7926 5.80981 67.8068 5.17345C68.821 4.53709 69.9794 4.2189 71.282 4.2189C72.5845 4.2189 73.7429 4.53709 74.7571 5.17345C75.7713 5.80981 76.5693 6.71464 77.1509 7.88794C77.7326 9.06123 78.0235 10.4533 78.0235 12.0641ZM76.2337 12.0641C76.2337 10.7416 76.0124 9.62551 75.57 8.71571C75.1325 7.80591 74.5384 7.11734 73.7877 6.65001C73.0419 6.18268 72.2067 5.94902 71.282 5.94902C70.3573 5.94902 69.5195 6.18268 68.7688 6.65001C68.0231 7.11734 67.429 7.80591 66.9865 8.71571C66.549 9.62551 66.3303 10.7416 66.3303 12.0641C66.3303 13.3865 66.549 14.5026 66.9865 15.4124C67.429 16.3222 68.0231 17.0108 68.7688 17.4781C69.5195 17.9455 70.3573 18.1791 71.282 18.1791C72.2067 18.1791 73.0419 17.9455 73.7877 17.4781C74.5384 17.0108 75.1325 16.3222 75.57 15.4124C76.0124 14.5026 76.2337 13.3865 76.2337 12.0641ZM81.1332 19.7004V4.42771H86.2937C87.4869 4.42771 88.4663 4.63155 89.2319 5.03922C89.9975 5.44192 90.5643 5.99625 90.9322 6.70222C91.3001 7.40818 91.484 8.21109 91.484 9.11095C91.484 10.0108 91.3001 10.8087 90.9322 11.5048C90.5643 12.2008 90 12.7477 89.2394 13.1454C88.4787 13.5382 87.5068 13.7345 86.3235 13.7345H82.1474V12.0641H86.2639C87.0792 12.0641 87.7355 11.9448 88.2326 11.7061C88.7347 11.4675 89.0977 11.1294 89.3214 10.6919C89.5501 10.2494 89.6644 9.72246 89.6644 9.11095C89.6644 8.49944 89.5501 7.965 89.3214 7.50761C89.0927 7.05023 88.7273 6.69724 88.2252 6.44866C87.723 6.19511 87.0593 6.06834 86.234 6.06834H82.9826V19.7004H81.1332ZM88.3221 12.8396L92.0806 19.7004H89.9329L86.234 12.8396H88.3221ZM93.7306 6.06834V4.42771H105.185V6.06834H100.383V19.7004H98.5331V6.06834H93.7306ZM109.889 4.42771V19.7004H108.039V4.42771H109.889ZM113.597 19.7004V4.42771H122.755V6.06834H115.446V11.2288H122.069V12.8695H115.446V19.7004H113.597ZM138.809 12.0641C138.809 13.6749 138.518 15.0669 137.936 16.2402C137.354 17.4135 136.556 18.3183 135.542 18.9547C134.528 19.5911 133.37 19.9092 132.067 19.9092C130.765 19.9092 129.606 19.5911 128.592 18.9547C127.578 18.3183 126.78 17.4135 126.198 16.2402C125.616 15.0669 125.326 13.6749 125.326 12.0641C125.326 10.4533 125.616 9.06123 126.198 7.88794C126.78 6.71464 127.578 5.80981 128.592 5.17345C129.606 4.53709 130.765 4.2189 132.067 4.2189C133.37 4.2189 134.528 4.53709 135.542 5.17345C136.556 5.80981 137.354 6.71464 137.936 7.88794C138.518 9.06123 138.809 10.4533 138.809 12.0641ZM137.019 12.0641C137.019 10.7416 136.798 9.62551 136.355 8.71571C135.918 7.80591 135.324 7.11734 134.573 6.65001C133.827 6.18268 132.992 5.94902 132.067 5.94902C131.142 5.94902 130.305 6.18268 129.554 6.65001C128.808 7.11734 128.214 7.80591 127.772 8.71571C127.334 9.62551 127.115 10.7416 127.115 12.0641C127.115 13.3865 127.334 14.5026 127.772 15.4124C128.214 16.3222 128.808 17.0108 129.554 17.4781C130.305 17.9455 131.142 18.1791 132.067 18.1791C132.992 18.1791 133.827 17.9455 134.573 17.4781C135.324 17.0108 135.918 16.3222 136.355 15.4124C136.798 14.5026 137.019 13.3865 137.019 12.0641ZM141.918 19.7004V4.42771H143.768V18.0598H150.867V19.7004H141.918ZM155.58 4.42771V19.7004H153.731V4.42771H155.58ZM172.175 12.0641C172.175 13.6749 171.884 15.0669 171.302 16.2402C170.721 17.4135 169.923 18.3183 168.908 18.9547C167.894 19.5911 166.736 19.9092 165.433 19.9092C164.131 19.9092 162.972 19.5911 161.958 18.9547C160.944 18.3183 160.146 17.4135 159.564 16.2402C158.983 15.0669 158.692 13.6749 158.692 12.0641C158.692 10.4533 158.983 9.06123 159.564 7.88794C160.146 6.71464 160.944 5.80981 161.958 5.17345C162.972 4.53709 164.131 4.2189 165.433 4.2189C166.736 4.2189 167.894 4.53709 168.908 5.17345C169.923 5.80981 170.721 6.71464 171.302 7.88794C171.884 9.06123 172.175 10.4533 172.175 12.0641ZM170.385 12.0641C170.385 10.7416 170.164 9.62551 169.721 8.71571C169.284 7.80591 168.69 7.11734 167.939 6.65001C167.193 6.18268 166.358 5.94902 165.433 5.94902C164.509 5.94902 163.671 6.18268 162.92 6.65001C162.174 7.11734 161.58 7.80591 161.138 8.71571C160.7 9.62551 160.482 10.7416 160.482 12.0641C160.482 13.3865 160.7 14.5026 161.138 15.4124C161.58 16.3222 162.174 17.0108 162.92 17.4781C163.671 17.9455 164.509 18.1791 165.433 18.1791C166.358 18.1791 167.193 17.9455 167.939 17.4781C168.69 17.0108 169.284 16.3222 169.721 15.4124C170.164 14.5026 170.385 13.3865 170.385 12.0641ZM50.6337 24.6124V23.5186H58.2701V24.6124H55.0684V33.7004H53.8354V24.6124H50.6337ZM60.173 33.7004V23.5186H63.6133C64.4088 23.5186 65.0617 23.6545 65.5721 23.9263C66.0825 24.1948 66.4604 24.5643 66.7056 25.035C66.9509 25.5056 67.0735 26.0409 67.0735 26.6408C67.0735 27.2407 66.9509 27.7726 66.7056 28.2367C66.4604 28.7007 66.0842 29.0653 65.5771 29.3304C65.07 29.5922 64.422 29.7232 63.6332 29.7232H60.8491V28.6095H63.5934C64.137 28.6095 64.5745 28.53 64.9059 28.3709C65.2407 28.2118 65.4826 27.9864 65.6318 27.6948C65.7842 27.3998 65.8605 27.0485 65.8605 26.6408C65.8605 26.2331 65.7842 25.8768 65.6318 25.5719C65.4793 25.267 65.2357 25.0316 64.9009 24.8659C64.5662 24.6969 64.1237 24.6124 63.5735 24.6124H61.4059V33.7004H60.173ZM64.9656 29.1266L67.4713 33.7004H66.0394L63.5735 29.1266H64.9656ZM69.5456 33.7004H68.253L71.9917 23.5186H73.2644L77.003 33.7004H75.7104L72.6678 25.1294H72.5883L69.5456 33.7004ZM70.0229 29.7232H75.2331V30.8169H70.0229V29.7232ZM86.3036 26.7004H85.0707C84.9978 26.3458 84.8702 26.0342 84.6879 25.7658C84.5089 25.4973 84.2901 25.2719 84.0316 25.0896C83.7764 24.904 83.493 24.7648 83.1815 24.672C82.8699 24.5792 82.5451 24.5328 82.207 24.5328C81.5906 24.5328 81.0321 24.6886 80.5316 25.0002C80.0345 25.3117 79.6384 25.7708 79.3434 26.3773C79.0517 26.9838 78.9059 27.7279 78.9059 28.6095C78.9059 29.4912 79.0517 30.2352 79.3434 30.8418C79.6384 31.4483 80.0345 31.9074 80.5316 32.2189C81.0321 32.5305 81.5906 32.6862 82.207 32.6862C82.5451 32.6862 82.8699 32.6398 83.1815 32.547C83.493 32.4542 83.7764 32.3167 84.0316 32.1344C84.2901 31.9488 84.5089 31.7217 84.6879 31.4533C84.8702 31.1815 84.9978 30.8699 85.0707 30.5186H86.3036C86.2108 31.039 86.0418 31.5047 85.7965 31.9156C85.5513 32.3266 85.2463 32.6763 84.8818 32.9646C84.5172 33.2497 84.1079 33.4668 83.6538 33.6159C83.203 33.7651 82.7208 33.8396 82.207 33.8396C81.3387 33.8396 80.5664 33.6275 79.8903 33.2033C79.2142 32.779 78.6822 32.1758 78.2944 31.3936C77.9066 30.6114 77.7127 29.6834 77.7127 28.6095C77.7127 27.5357 77.9066 26.6076 78.2944 25.8254C78.6822 25.0432 79.2142 24.44 79.8903 24.0158C80.5664 23.5915 81.3387 23.3794 82.207 23.3794C82.7208 23.3794 83.203 23.454 83.6538 23.6031C84.1079 23.7523 84.5172 23.971 84.8818 24.2594C85.2463 24.5444 85.5513 24.8924 85.7965 25.3034C86.0418 25.7111 86.2108 26.1768 86.3036 26.7004ZM88.296 33.7004V23.5186H89.529V28.5698H89.6483L94.2221 23.5186H95.8329L91.5574 28.1124L95.8329 33.7004H94.3415L90.8017 28.9675L89.529 30.3993V33.7004H88.296Z" fill="white"/>
</svg>
