<svg width="201" height="51" viewBox="0 0 201 51" fill="none" xmlns="http://www.w3.org/2000/svg">
<rect x="0.348022" y="0.454041" width="200" height="50" fill="white"/>
<ellipse cx="55.0175" cy="25.5844" rx="2.5" ry="2.60417" fill="black"/>
<ellipse cx="46.6466" cy="25.5844" rx="1.87508" ry="1.95321" fill="black"/>
<ellipse cx="39.3704" cy="25.5844" rx="1.40545" ry="1.46401" fill="black"/>
<ellipse cx="32.9145" cy="25.5844" rx="1.05466" ry="1.09861" fill="black"/>
<ellipse cx="49.7955" cy="30.9886" rx="2.5" ry="2.60417" fill="black"/>
<ellipse cx="41.4246" cy="30.9886" rx="1.87508" ry="1.95321" fill="black"/>
<ellipse cx="34.1484" cy="30.9885" rx="1.40545" ry="1.46401" fill="black"/>
<ellipse cx="27.6925" cy="30.9886" rx="1.05466" ry="1.09861" fill="black"/>
<ellipse cx="49.7955" cy="20.1803" rx="2.5" ry="2.60417" fill="black"/>
<ellipse cx="41.4246" cy="20.1803" rx="1.87508" ry="1.95321" fill="black"/>
<ellipse cx="34.1484" cy="20.1803" rx="1.40545" ry="1.46401" fill="black"/>
<ellipse cx="27.6925" cy="20.1803" rx="1.05466" ry="1.09861" fill="black"/>
<ellipse cx="43.9138" cy="36.3784" rx="2.5" ry="2.60417" fill="black"/>
<ellipse cx="35.543" cy="36.3784" rx="1.87508" ry="1.95321" fill="black"/>
<ellipse cx="28.2667" cy="36.3784" rx="1.40545" ry="1.46401" fill="black"/>
<ellipse cx="21.8109" cy="36.3784" rx="1.05466" ry="1.09861" fill="black"/>
<ellipse cx="43.9138" cy="14.7903" rx="2.5" ry="2.60417" fill="black"/>
<ellipse cx="35.543" cy="14.7903" rx="1.87508" ry="1.95321" fill="black"/>
<ellipse cx="28.2667" cy="14.7903" rx="1.40545" ry="1.46401" fill="black"/>
<ellipse cx="21.8109" cy="14.7903" rx="1.05466" ry="1.09861" fill="black"/>
<ellipse cx="38.0214" cy="41.1762" rx="2.5" ry="2.60417" fill="black"/>
<ellipse cx="29.6505" cy="41.1762" rx="1.87508" ry="1.95321" fill="black"/>
<ellipse cx="22.3743" cy="41.1762" rx="1.40545" ry="1.46401" fill="black"/>
<ellipse cx="15.9184" cy="41.1762" rx="1.05466" ry="1.09861" fill="black"/>
<ellipse cx="38.0214" cy="9.73191" rx="2.5" ry="2.60417" fill="black"/>
<ellipse cx="29.6505" cy="9.7319" rx="1.87508" ry="1.95321" fill="black"/>
<ellipse cx="22.3743" cy="9.73189" rx="1.40545" ry="1.46401" fill="black"/>
<ellipse cx="15.9184" cy="9.73191" rx="1.05466" ry="1.09861" fill="black"/>
<path d="M66.2954 25.954V10.6813H71.4559C72.654 10.6813 73.6334 10.8976 74.3941 11.3301C75.1597 11.7577 75.7265 12.3369 76.0944 13.0677C76.4623 13.7985 76.6462 14.6138 76.6462 15.5137C76.6462 16.4136 76.4623 17.2314 76.0944 17.9672C75.7314 18.703 75.1696 19.2896 74.409 19.7271C73.6483 20.1597 72.6739 20.3759 71.4857 20.3759H67.7868V18.7353H71.426C72.2463 18.7353 72.9051 18.5936 73.4022 18.3102C73.8994 18.0268 74.2598 17.644 74.4836 17.1618C74.7123 16.6746 74.8266 16.1252 74.8266 15.5137C74.8266 14.9022 74.7123 14.3553 74.4836 13.8731C74.2598 13.3908 73.8969 13.013 73.3948 12.7396C72.8927 12.4611 72.2265 12.3219 71.3962 12.3219H68.1448V25.954H66.2954ZM92.5118 18.3177C92.5118 19.9285 92.221 21.3205 91.6393 22.4938C91.0576 23.6671 90.2597 24.5719 89.2455 25.2083C88.2313 25.8447 87.0729 26.1628 85.7703 26.1628C84.4678 26.1628 83.3094 25.8447 82.2952 25.2083C81.281 24.5719 80.483 23.6671 79.9014 22.4938C79.3197 21.3205 79.0288 19.9285 79.0288 18.3177C79.0288 16.7069 79.3197 15.3148 79.9014 14.1415C80.483 12.9682 81.281 12.0634 82.2952 11.4271C83.3094 10.7907 84.4678 10.4725 85.7703 10.4725C87.0729 10.4725 88.2313 10.7907 89.2455 11.4271C90.2597 12.0634 91.0576 12.9682 91.6393 14.1415C92.221 15.3148 92.5118 16.7069 92.5118 18.3177ZM90.722 18.3177C90.722 16.9952 90.5008 15.8791 90.0583 14.9693C89.6208 14.0595 89.0267 13.3709 88.276 12.9036C87.5303 12.4363 86.695 12.2026 85.7703 12.2026C84.8456 12.2026 84.0079 12.4363 83.2572 12.9036C82.5114 13.3709 81.9173 14.0595 81.4749 14.9693C81.0374 15.8791 80.8186 16.9952 80.8186 18.3177C80.8186 19.6401 81.0374 20.7562 81.4749 21.666C81.9173 22.5758 82.5114 23.2644 83.2572 23.7317C84.0079 24.1991 84.8456 24.4327 85.7703 24.4327C86.695 24.4327 87.5303 24.1991 88.276 23.7317C89.0267 23.2644 89.6208 22.5758 90.0583 21.666C90.5008 20.7562 90.722 19.6401 90.722 18.3177ZM95.6215 25.954V10.6813H100.782C101.975 10.6813 102.955 10.8851 103.72 11.2928C104.486 11.6955 105.053 12.2498 105.421 12.9558C105.788 13.6618 105.972 14.4647 105.972 15.3646C105.972 16.2644 105.788 17.0623 105.421 17.7584C105.053 18.4544 104.488 19.0013 103.728 19.399C102.967 19.7918 101.995 19.9881 100.812 19.9881H96.6357V18.3177H100.752C101.568 18.3177 102.224 18.1984 102.721 17.9597C103.223 17.7211 103.586 17.383 103.81 16.9455C104.038 16.503 104.153 15.9761 104.153 15.3646C104.153 14.753 104.038 14.2186 103.81 13.7612C103.581 13.3038 103.216 12.9508 102.714 12.7023C102.211 12.4487 101.548 12.3219 100.722 12.3219H97.471V25.954H95.6215ZM102.81 19.0932L106.569 25.954H104.421L100.722 19.0932H102.81ZM108.219 12.3219V10.6813H119.673V12.3219H114.871V25.954H113.021V12.3219H108.219ZM124.377 10.6813V25.954H122.528V10.6813H124.377ZM128.085 25.954V10.6813H137.243V12.3219H129.935V17.4824H136.557V19.1231H129.935V25.954H128.085ZM153.297 18.3177C153.297 19.9285 153.006 21.3205 152.424 22.4938C151.843 23.6671 151.045 24.5719 150.031 25.2083C149.016 25.8447 147.858 26.1628 146.555 26.1628C145.253 26.1628 144.095 25.8447 143.08 25.2083C142.066 24.5719 141.268 23.6671 140.687 22.4938C140.105 21.3205 139.814 19.9285 139.814 18.3177C139.814 16.7069 140.105 15.3148 140.687 14.1415C141.268 12.9682 142.066 12.0634 143.08 11.4271C144.095 10.7907 145.253 10.4725 146.555 10.4725C147.858 10.4725 149.016 10.7907 150.031 11.4271C151.045 12.0634 151.843 12.9682 152.424 14.1415C153.006 15.3148 153.297 16.7069 153.297 18.3177ZM151.507 18.3177C151.507 16.9952 151.286 15.8791 150.843 14.9693C150.406 14.0595 149.812 13.3709 149.061 12.9036C148.315 12.4363 147.48 12.2026 146.555 12.2026C145.631 12.2026 144.793 12.4363 144.042 12.9036C143.297 13.3709 142.702 14.0595 142.26 14.9693C141.823 15.8791 141.604 16.9952 141.604 18.3177C141.604 19.6401 141.823 20.7562 142.26 21.666C142.702 22.5758 143.297 23.2644 144.042 23.7317C144.793 24.1991 145.631 24.4327 146.555 24.4327C147.48 24.4327 148.315 24.1991 149.061 23.7317C149.812 23.2644 150.406 22.5758 150.843 21.666C151.286 20.7562 151.507 19.6401 151.507 18.3177ZM156.407 25.954V10.6813H158.256V24.3134H165.356V25.954H156.407ZM170.069 10.6813V25.954H168.219V10.6813H170.069ZM186.663 18.3177C186.663 19.9285 186.372 21.3205 185.791 22.4938C185.209 23.6671 184.411 24.5719 183.397 25.2083C182.383 25.8447 181.224 26.1628 179.922 26.1628C178.619 26.1628 177.461 25.8447 176.447 25.2083C175.432 24.5719 174.634 23.6671 174.053 22.4938C173.471 21.3205 173.18 19.9285 173.18 18.3177C173.18 16.7069 173.471 15.3148 174.053 14.1415C174.634 12.9682 175.432 12.0634 176.447 11.4271C177.461 10.7907 178.619 10.4725 179.922 10.4725C181.224 10.4725 182.383 10.7907 183.397 11.4271C184.411 12.0634 185.209 12.9682 185.791 14.1415C186.372 15.3148 186.663 16.7069 186.663 18.3177ZM184.873 18.3177C184.873 16.9952 184.652 15.8791 184.21 14.9693C183.772 14.0595 183.178 13.3709 182.427 12.9036C181.682 12.4363 180.846 12.2026 179.922 12.2026C178.997 12.2026 178.159 12.4363 177.409 12.9036C176.663 13.3709 176.069 14.0595 175.626 14.9693C175.189 15.8791 174.97 16.9952 174.97 18.3177C174.97 19.6401 175.189 20.7562 175.626 21.666C176.069 22.5758 176.663 23.2644 177.409 23.7317C178.159 24.1991 178.997 24.4327 179.922 24.4327C180.846 24.4327 181.682 24.1991 182.427 23.7317C183.178 23.2644 183.772 22.5758 184.21 21.666C184.652 20.7562 184.873 19.6401 184.873 18.3177ZM65.1221 30.866V29.7722H72.7584V30.866H69.5567V39.954H68.3238V30.866H65.1221ZM74.6613 39.954V29.7722H78.1016C78.8971 29.7722 79.55 29.9081 80.0604 30.1799C80.5709 30.4484 80.9487 30.8179 81.194 31.2886C81.4392 31.7592 81.5619 32.2945 81.5619 32.8944C81.5619 33.4943 81.4392 34.0262 81.194 34.4903C80.9487 34.9543 80.5725 35.3189 80.0654 35.584C79.5583 35.8458 78.9104 35.9768 78.1215 35.9768H75.3374V34.8631H78.0818C78.6253 34.8631 79.0628 34.7836 79.3943 34.6245C79.729 34.4654 79.971 34.24 80.1201 33.9484C80.2726 33.6534 80.3488 33.3021 80.3488 32.8944C80.3488 32.4867 80.2726 32.1304 80.1201 31.8255C79.9676 31.5206 79.724 31.2852 79.3893 31.1195C79.0545 30.9505 78.6121 30.866 78.0619 30.866H75.8943V39.954H74.6613ZM79.4539 35.3802L81.9596 39.954H80.5278L78.0619 35.3802H79.4539ZM84.034 39.954H82.7414L86.48 29.7722H87.7527L91.4914 39.954H90.1988L87.1562 31.383H87.0766L84.034 39.954ZM84.5113 35.9768H89.7215V37.0705H84.5113V35.9768ZM100.792 32.954H99.559C99.4861 32.5994 99.3585 32.2878 99.1762 32.0194C98.9972 31.7509 98.7785 31.5255 98.52 31.3432C98.2648 31.1576 97.9814 31.0184 97.6698 30.9256C97.3583 30.8328 97.0335 30.7864 96.6954 30.7864C96.0789 30.7864 95.5204 30.9422 95.02 31.2538C94.5228 31.5653 94.1267 32.0244 93.8318 32.6309C93.5401 33.2374 93.3943 33.9815 93.3943 34.8631C93.3943 35.7448 93.5401 36.4888 93.8318 37.0954C94.1267 37.7019 94.5228 38.161 95.02 38.4725C95.5204 38.7841 96.0789 38.9398 96.6954 38.9398C97.0335 38.9398 97.3583 38.8934 97.6698 38.8006C97.9814 38.7078 98.2648 38.5703 98.52 38.388C98.7785 38.2024 98.9972 37.9753 99.1762 37.7069C99.3585 37.4351 99.4861 37.1235 99.559 36.7722H100.792C100.699 37.2926 100.53 37.7583 100.285 38.1692C100.04 38.5802 99.7347 38.9299 99.3701 39.2182C99.0055 39.5033 98.5962 39.7204 98.1421 39.8695C97.6914 40.0187 97.2091 40.0932 96.6954 40.0932C95.827 40.0932 95.0548 39.8811 94.3786 39.4569C93.7025 39.0326 93.1705 38.4294 92.7827 37.6472C92.395 36.865 92.2011 35.937 92.2011 34.8631C92.2011 33.7893 92.395 32.8612 92.7827 32.079C93.1705 31.2968 93.7025 30.6936 94.3786 30.2694C95.0548 29.8451 95.827 29.633 96.6954 29.633C97.2091 29.633 97.6914 29.7076 98.1421 29.8567C98.5962 30.0059 99.0055 30.2246 99.3701 30.513C99.7347 30.798 100.04 31.146 100.285 31.557C100.53 31.9647 100.699 32.4304 100.792 32.954ZM102.784 39.954V29.7722H104.017V34.8234H104.137L108.71 29.7722H110.321L106.046 34.366L110.321 39.954H108.83L105.29 35.2211L104.017 36.6529V39.954H102.784Z" fill="black"/>
</svg>
